<?xml version="1.0" encoding="utf-8"?>
<!-- Generator: Adobe Illustrator 22.1.0, SVG Export Plug-In . SVG Version: 6.00 Build 0)  -->
<svg version="1.1" id="Layer_1" xmlns="http://www.w3.org/2000/svg" xmlns:xlink="http://www.w3.org/1999/xlink" x="0px" y="0px"
	 viewBox="0 0 300 300" style="enable-background:new 0 0 300 300;" xml:space="preserve">
<style type="text/css">
	.st0{fill:#E6EBEF;}
	.st1{fill:#1F4386;}
	.st2{fill:#66C6C6;}
	.st3{fill:#FFFFFF;}
	.st4{fill:#ACDDDE;}
	.st5{fill:#F4F5F5;}
	.st6{fill:none;stroke:#1F4386;stroke-width:5;stroke-miterlimit:10;}
	.st7{fill:none;stroke:#66C6C6;stroke-width:5;stroke-miterlimit:10;}
	.st8{fill:#FCF9F9;}
	.st9{fill:#939AA0;}
	.st10{fill:#81F2EF;}
	.st11{fill:#2D918A;}
	.st12{fill:#1E5259;}
	.st13{fill:#FF7769;}
	.st14{fill:#DD4231;}
</style>
<path class="st6" d="M126.1,256.6l-63.7-63.8c-6.2-6.2-6.2-16.2,0-22.4l1.7-1.7c6.2-6.2,16.2-6.2,22.4,0l28.9,28.9V82
	c0-8.7,7.1-15.8,15.9-15.9h1.3c8.7,0,15.8,7.1,15.9,15.9v59.4l60.7,10.1c0,0,19.8,3.9,19.8,29.9l-5.7,72.7"/>
<path class="st7" d="M98.4,94.6c-9.4-18.4-2.2-40.9,16.2-50.3s40.9-2.2,50.3,16.2c5.5,10.7,5.5,23.4,0,34.1"/>
<path class="st7" d="M80,103.2C65.8,74.6,77.4,40,106,25.8s63.2-2.6,77.4,26c8.1,16.2,8.1,35.2,0,51.4"/>
</svg>
