<?xml version="1.0" encoding="utf-8"?>
<!-- Generator: Adobe Illustrator 22.1.0, SVG Export Plug-In . SVG Version: 6.00 Build 0)  -->
<svg version="1.1" id="Layer_1" xmlns="http://www.w3.org/2000/svg" xmlns:xlink="http://www.w3.org/1999/xlink" x="0px" y="0px"
	 viewBox="0 0 300 300" style="enable-background:new 0 0 300 300;" xml:space="preserve">
<style type="text/css">
	.st0{fill:#1F4386;}
	.st1{fill:#66C6C6;}
</style>
<g>
	<g>
		<g>
			<g>
				<path class="st0" d="M138.5,165.1c-7,0-12.5,5.7-12.5,12.5c0,7,5.7,12.5,12.5,12.5c6.8,0,12.5-5.7,12.5-12.5
					C151,170.8,145.5,165.1,138.5,165.1z"/>
			</g>
		</g>
		<g>
			<g>
				<path class="st0" d="M110.1,178.9H93.6v-16.5c0-3-2.4-5.6-5.6-5.6c-3,0-5.6,2.4-5.6,5.6v16.5H65.9c-3,0-5.6,2.4-5.6,5.6
					c0,3,2.4,5.6,5.6,5.6h16.7v16.5c0,3,2.4,5.6,5.6,5.6c3,0,5.6-2.4,5.6-5.6V190h16.5c3,0,5.6-2.4,5.6-5.6
					C115.7,181.3,113.2,178.9,110.1,178.9z"/>
			</g>
		</g>
	</g>
	<path class="st1" d="M276.5,186.4c-12.1-21.1-39.1-28.4-60.2-16.1l-22.4,13v-47.9c0-5.8-2-11.8-5.6-16.5l-27.5-36.8V66.4
		c6.4-2.3,11-8.4,11-15.5V25.5c0-9.1-7.4-16.5-16.5-16.5H56.2c-9.1,0-16.5,7.4-16.5,16.5v25.4c0,7.1,4.6,13.3,11,15.5v15.7
		l-27.5,36.6c-3.6,4.7-5.6,10.6-5.6,16.5v106.8c0,15.3,12.4,27.5,27.5,27.5h88.5c12.4,20.7,39.1,27.7,59.9,15.5l66.9-38.6
		C281.3,234.5,288.8,207.5,276.5,186.4z M50.7,25.5c0-3,2.4-5.6,5.6-5.6h99.1c3,0,5.6,2.4,5.6,5.6v25.4c0,3-2.4,5.6-5.6,5.6H56.2
		c-3,0-5.6-2.4-5.6-5.6V25.5L50.7,25.5z M31.8,125.4l28.7-38.2c0.7-1,1.1-2.1,1.1-3.3V67.4h88.1v11h-49.6c-3,0-5.6,2.4-5.6,5.6
		c0,3,2.4,5.6,5.6,5.6h52.3l26.9,35.9c1.7,2.4,2.9,5.1,3.1,8.1H28.7C29,130.6,30.1,127.7,31.8,125.4z M45.1,258.6
		c-9.1,0-16.5-7.4-16.5-16.5v-5.6h100.1c-1.7,7.1-1.7,14.8,0.3,22.1H45.1L45.1,258.6z M133.1,225.5H28.6v-81h154.3v45.1l-33.4,19.2
		C142.5,212.8,136.9,218.5,133.1,225.5z M188.1,275.7c-15.8,9.1-36.1,3.7-45.2-12.1c-9.1-16-3.6-36.1,12.1-45.2l29.9-17.3l33.1,57.3
		L188.1,275.7z M254.8,237.1l-27.4,15.8l-33.1-57.3l27.4-15.8c15.8-9.1,36.1-3.7,45.2,12.1C276.2,207.8,270.5,227.9,254.8,237.1z"/>
</g>
</svg>
