<?xml version="1.0" encoding="utf-8"?>
<!-- Generator: Adobe Illustrator 22.1.0, SVG Export Plug-In . SVG Version: 6.00 Build 0)  -->
<svg version="1.1" id="Layer_1" xmlns="http://www.w3.org/2000/svg" xmlns:xlink="http://www.w3.org/1999/xlink" x="0px" y="0px"
	 viewBox="0 0 300 300" style="enable-background:new 0 0 300 300;" xml:space="preserve">
<style type="text/css">
	.st0{fill:#1F4386;}
	.st1{fill:#FCF9F9;}
	.st2{fill:#66C6C6;}
	.st3{fill:#939AA0;}
	.st4{fill:#81F2EF;}
	.st5{fill:#2D918A;}
	.st6{fill:#1E5259;}
	.st7{fill:#FF7769;}
	.st8{fill:#DD4231;}
</style>
<g>
	<path class="st0" d="M211.4,286.6H76.8c-1.9,0-3.5-1.6-3.5-3.5V16.9c0-1.9,1.6-3.5,3.5-3.5h134.6c1.9,0,3.5,1.6,3.5,3.5v266.2
		C215,285,213.4,286.6,211.4,286.6z"/>
	<path class="st1" d="M203.7,267.9H84.6c-1.8,0-3.1-1.5-3.1-3.1V29.5c0-1.8,1.5-3.1,3.1-3.1h119.1c1.8,0,3.1,1.5,3.1,3.1v235.3
		C206.8,266.6,205.3,267.9,203.7,267.9z"/>
	<ellipse class="st2" cx="144.2" cy="26.4" rx="12" ry="12"/>
	<path class="st0" d="M147.6,26.4c0,1.9-1.6,3.5-3.5,3.5c-1.9,0-3.5-1.6-3.5-3.5c0-1.9,1.6-3.5,3.5-3.5
		C146,22.9,147.6,24.4,147.6,26.4z"/>
	<rect x="81.5" y="62.4" class="st2" width="125.3" height="16.5"/>
	<g>
		<rect x="123.5" y="250.2" class="st2" width="67.9" height="8"/>
		<g>
			<path class="st2" d="M104.8,259.7c-0.1,0-0.3,0-0.6-0.1c-0.1,0-0.1-0.1-0.3-0.1l-9.5-5.4c-1.8-1-2.9-2.5-3.8-4.2
				c-2-4.8,0.1-10.4,5-12.4c3.1-1.3,6.4-0.9,9.2,0.9c2.6-1.9,6.1-2.2,9.2-0.9c2.3,1,4.1,2.8,5.1,5.3c0.9,2.3,0.9,5-0.1,7.3
				c-0.7,1.8-2,3.2-3.8,4.2l-9.7,5.6C105.2,259.5,105.1,259.7,104.8,259.7z M99.3,239.2c-0.9,0-1.8,0.1-2.6,0.6
				c-3.4,1.5-5,5.4-3.5,8.8c0.6,1.3,1.5,2.3,2.6,3.1l8.9,5.1l8.9-5.1c1.2-0.7,2-1.8,2.6-3.1c0.7-1.6,0.7-3.5,0.1-5.1
				c-0.7-1.6-1.9-2.9-3.5-3.7c-2.3-1-5.3-0.6-7.2,1.2c-0.6,0.4-1.3,0.4-1.9,0C102.6,239.8,101,239.2,99.3,239.2z M117.5,249.2
				L117.5,249.2L117.5,249.2z"/>
		</g>
	</g>
	<path class="st1" d="M186,44.6h-83.7c-5,0-9.1,4.1-9.1,9.1v35c0,5,4.1,9.1,9.1,9.1h3.1c0,0,6.4,0.3,10,2.8c3.5,2.5,5.3,6.9,5.3,6.9
		v-9.7H186c5,0,9.1-4.1,9.1-9.1V53.8C195.1,48.7,191,44.6,186,44.6z"/>
	<g>
		<path class="st0" d="M120.6,108.8c-0.6,0-1-0.3-1.3-0.9c0,0-1.8-4-4.8-6.3c-3.2-2.3-9.1-2.6-9.2-2.6h-3.1
			c-5.9,0-10.5-4.7-10.5-10.5V53.8c0-5.9,4.7-10.5,10.5-10.5h83.7c5.9,0,10.5,4.7,10.5,10.5v35c0,5.9-4.7,10.5-10.5,10.5h-2.5
			c-0.7,0-1.3-0.6-1.3-1.3c0-0.7,0.6-1.3,1.3-1.3h2.5c4.2,0,7.8-3.5,7.8-7.8V53.8c0-4.2-3.5-7.8-7.8-7.8h-83.7
			c-4.2,0-7.8,3.5-7.8,7.8v35c0,4.2,3.5,7.8,7.8,7.8h3.1c0.3,0,6.9,0.3,10.7,3.1c1.3,0.9,2.3,2,3.2,3.1v-4.8c0-0.7,0.6-1.3,1.3-1.3
			h25.9c0.7,0,1.3,0.6,1.3,1.3c0,0.7-0.6,1.3-1.3,1.3h-24.6v8.3C121.7,108.1,121.3,108.7,120.6,108.8
			C120.7,108.8,120.7,108.8,120.6,108.8z"/>
	</g>
	<g>
		<path class="st3" d="M174.1,99.1H164c-0.7,0-1.3-0.6-1.3-1.3c0-0.7,0.6-1.3,1.3-1.3h10.1c0.7,0,1.3,0.6,1.3,1.3
			C175.6,98.6,174.9,99.1,174.1,99.1z"/>
	</g>
	<g>
		<g>
			<path class="st2" d="M106.7,61.2L106.7,61.2l-4.7,2.5l-0.7-2.8l5.7-3.1h3.1v26.3h-3.5v-23H106.7z"/>
			<path class="st2" d="M110.2,85.2h-3.5c-0.6,0-1-0.4-1-1V62.8l-3.2,1.8c-0.3,0.1-0.6,0.1-0.9,0c-0.3-0.1-0.4-0.4-0.6-0.7l-0.7-2.8
				c-0.1-0.4,0.1-0.9,0.4-1.2l5.7-3.1c0.1-0.1,0.3-0.1,0.4-0.1h3.1c0.6,0,1,0.4,1,1v26.3C111.1,84.8,110.6,85.2,110.2,85.2z
				 M107.7,83.2h1.5V58.9h-1.8l-4.8,2.6l0.1,0.7l3.5-1.9c0.6-0.3,1.6,0.1,1.6,0.9v22H107.7z"/>
		</g>
		<g>
			<path class="st2" d="M119.7,84.2V82l2.8-2.8c6.7-6.4,9.8-9.8,9.8-13.8c0-2.6-1.3-5.1-5.3-5.1c-2.3,0-4.4,1.2-5.6,2.2l-1.2-2.5
				c1.8-1.6,4.4-2.6,7.5-2.6c5.7,0,8,4,8,7.6c0,4.8-3.5,8.8-9.1,14.2l-2,1.9v0.1h11.9v2.9C136.5,84.2,119.7,84.2,119.7,84.2z"/>
			<path class="st2" d="M136.5,85.2h-16.8c-0.6,0-1-0.4-1-1V82c0-0.3,0.1-0.6,0.3-0.7l2.8-2.8c6.7-6.3,9.5-9.5,9.5-13
				c0-2.8-1.5-4.1-4.2-4.1c-2.2,0-4.1,1.3-5,2c-0.3,0.1-0.6,0.3-0.9,0.1c-0.3,0-0.6-0.3-0.7-0.6l-1.2-2.5c-0.1-0.4-0.1-0.9,0.3-1.2
				c2.2-1.9,5.1-2.9,8.2-2.9c6.3,0,9.1,4.4,9.1,8.6c0,5.4-4,9.7-9.4,14.9l-0.1,0.3h9.4c0.6,0,1,0.4,1,1v2.9
				C137.5,84.8,137.1,85.2,136.5,85.2z M120.7,83.2h14.8v-0.9h-10.8c-0.6,0-1-0.4-1-1c0-0.3,0.1-0.6,0.3-0.9l2-1.9
				c6-5.7,8.8-9.2,8.8-13.5c0-3.1-1.9-6.7-7-6.7c-2.2,0-4.4,0.7-6.1,1.9l0.3,0.6c1.3-0.9,3.1-1.6,5.3-1.6c4,0,6.3,2.3,6.3,6.1
				c0,4.4-3.2,8-10.1,14.5l-2.5,2.3v1H120.7z M124.7,81.1L124.7,81.1L124.7,81.1z"/>
		</g>
		<g>
			<path class="st2" d="M140.9,67.8c0-1.5,1-2.5,2.5-2.5s2.3,1,2.3,2.5c0,1.5-0.9,2.5-2.5,2.5C141.8,70.3,140.9,69.3,140.9,67.8z
				 M140.9,82.2c0-1.5,1-2.5,2.5-2.5s2.3,1,2.3,2.5s-0.9,2.5-2.5,2.5C141.8,84.7,140.9,83.6,140.9,82.2z"/>
			<path class="st2" d="M143.2,85.7c-1.9,0-3.4-1.5-3.4-3.5c0-2,1.5-3.5,3.5-3.5c1.9,0,3.4,1.5,3.4,3.5
				C146.8,84.2,145.3,85.7,143.2,85.7z M143.2,80.6c-0.9,0-1.5,0.6-1.5,1.6c0,0.7,0.4,1.5,1.3,1.5c1,0,1.5-0.7,1.5-1.5
				C144.7,81.9,144.6,80.6,143.2,80.6z M143.2,71.3c-1.9,0-3.4-1.5-3.4-3.5c0-2,1.5-3.5,3.5-3.5c1.9,0,3.4,1.5,3.4,3.5
				C146.8,69.9,145.3,71.3,143.2,71.3z M143.2,66.4c-0.9,0-1.5,0.6-1.5,1.6c0,0.7,0.4,1.5,1.3,1.5c1,0,1.5-0.7,1.5-1.5
				C144.7,67.5,144.6,66.4,143.2,66.4z"/>
		</g>
		<g>
			<path class="st2" d="M149.8,80.1c1,0.6,3.4,1.6,5.9,1.6c4.5,0,6-2.9,6-5.1c0-3.7-3.4-5.3-6.9-5.3h-2v-2.6h2
				c2.6,0,5.9-1.3,5.9-4.5c0-2-1.3-4-4.7-4c-2,0-4.1,0.9-5.3,1.8l-0.9-2.6c1.3-1,4.1-2,6.9-2c5.3,0,7.6,3.1,7.6,6.3
				c0,2.8-1.6,5-4.8,6.1V70c3.2,0.6,5.9,3.1,5.9,6.7c0,4.2-3.2,7.9-9.7,7.9c-2.9,0-5.6-0.9-6.9-1.8L149.8,80.1z"/>
			<path class="st2" d="M155.7,85.7c-3.2,0-6-1-7.5-1.9c-0.4-0.3-0.6-0.7-0.4-1.2l1-2.8c0.1-0.3,0.3-0.6,0.6-0.6
				c0.3-0.1,0.6,0,0.9,0.1c0.9,0.6,2.9,1.5,5.3,1.5c1.8,0,3.1-0.4,4-1.3c1-1,1-2.2,1-2.8c0-3.2-3.1-4.2-5.9-4.2h-2c-0.6,0-1-0.4-1-1
				v-2.6c0-0.6,0.4-1,1-1h2c1.9,0,4.8-0.9,4.8-3.5c0-1.9-1.3-2.9-3.7-2.9c-1.9,0-3.7,0.9-4.7,1.6c-0.3,0.1-0.6,0.3-0.9,0.1
				c-0.3-0.1-0.6-0.3-0.6-0.6l-0.9-2.6c-0.1-0.4,0-0.9,0.3-1.2c1.5-1.2,4.4-2.2,7.5-2.2c5.9,0,8.6,3.7,8.6,7.3
				c0,2.5-1.2,4.7-3.4,6.1c2.8,1.3,4.4,4,4.4,7C166.4,81.1,163,85.7,155.7,85.7z M150.1,82.5c1.3,0.7,3.4,1.2,5.6,1.2
				c6,0,8.6-3.5,8.6-6.9c0-3.5-2.8-5.3-5.1-5.9c-0.4-0.1-0.9-0.4-0.9-1c0-0.4,0.3-0.9,0.7-1c2.8-1,4.2-2.8,4.2-5.3
				c0-2.5-1.8-5.3-6.6-5.3c-2.2,0-4.4,0.7-5.7,1.5l0.3,0.7c1.3-0.7,2.9-1.3,4.7-1.3c4.1,0,5.7,2.6,5.7,5c0,3.7-3.5,5.4-6.9,5.4h-1
				v0.6h1c4.7,0,7.8,2.5,7.9,6.3c0,1.6-0.6,3.1-1.6,4.2c-0.9,0.9-2.5,1.9-5.3,1.9c-2,0-4-0.6-5.3-1.2L150.1,82.5z"/>
		</g>
		<g>
			<path class="st2" d="M187.3,70.8c0,8.9-3.4,13.9-9.2,13.9c-5.1,0-8.6-4.8-8.8-13.6c0-8.8,3.8-13.8,9.2-13.8
				C184.2,57.4,187.3,62.4,187.3,70.8z M173,71.2c0,6.9,2,10.8,5.4,10.8c3.7,0,5.4-4.2,5.4-11c0-6.4-1.6-10.8-5.4-10.8
				C175.3,60.2,173,64,173,71.2z"/>
			<path class="st2" d="M178.2,85.7c-6,0-9.7-5.6-9.8-14.6c0-9.1,4-14.8,10.2-14.8c6.1,0,9.8,5.4,9.8,14.3
				C188.3,80.3,184.7,85.7,178.2,85.7z M178.7,58.5c-5,0-8.2,4.8-8.2,12.7c0.1,7.9,2.9,12.6,7.8,12.6c7.2,0,8.2-8,8.2-12.9
				C186.3,62.8,183.5,58.5,178.7,58.5z M178.4,82.9c-4,0-6.4-4.4-6.4-11.7c0-8.9,3.4-12,6.4-12c2.3,0,6.4,1.5,6.4,11.7
				C184.8,81.4,180.7,82.9,178.4,82.9z M178.4,61.2c-2.6,0-4.4,4-4.4,10c0,6,1.6,9.8,4.4,9.8c4,0,4.4-7,4.4-10
				C182.8,67.2,182.2,61.2,178.4,61.2z"/>
		</g>
	</g>
	<g id="window_1_3_">
		<path class="st1" d="M81.2,237.7H12.4c-2.2,0-4.1-1.8-4.1-4.1V101.3c0-2.2,1.8-4.1,4.1-4.1h68.6c2.2,0,4.1,1.8,4.1,4.1v132.3
			C85.1,236,83.4,237.7,81.2,237.7z"/>
		<g>
			<polygon class="st4" points="67.9,123 67.9,139.2 55,139.2 55,152.3 38.8,152.3 38.8,139.2 25.7,139.2 25.7,123 38.8,123 
				38.8,110 55,110 55,123 			"/>
			<path class="st5" d="M55,153.7H38.8c-0.7,0-1.3-0.6-1.3-1.3v-11.7H25.9c-0.7,0-1.3-0.6-1.3-1.3v-16.2c0-0.7,0.6-1.3,1.3-1.3h11.6
				v-11.6c0-0.7,0.6-1.3,1.3-1.3H55c0.7,0,1.3,0.6,1.3,1.3v11.6h11.6c0.7,0,1.3,0.6,1.3,1.3v16.2c0,0.7-0.6,1.3-1.3,1.3H56.3v11.7
				C56.3,153,55.7,153.7,55,153.7z M40.1,151h13.5v-11.7c0-0.7,0.6-1.3,1.3-1.3h11.6v-13.5H54.9c-0.7,0-1.3-0.6-1.3-1.3v-11.6H40.1
				v11.6c0,0.7-0.6,1.3-1.3,1.3H27.2v13.5h11.6c0.7,0,1.3,0.6,1.3,1.3V151z"/>
		</g>
		<g>
			<rect x="29.4" y="188" class="st3" width="33.8" height="2.8"/>
		</g>
		<g>
			<rect x="20.3" y="210.8" class="st3" width="53" height="2.8"/>
		</g>
		<g>
			<rect x="20.3" y="199.4" class="st3" width="53" height="2.8"/>
		</g>
		<g>
			<rect x="20.3" y="222.1" class="st3" width="53" height="2.8"/>
		</g>
		<rect x="20.3" y="172.5" class="st3" width="53" height="8"/>
		<g>
			<path class="st3" d="M8.5,212.6c-0.7,0-1.3-0.6-1.3-1.3v-6.6c0-0.7,0.6-1.3,1.3-1.3c0.7,0,1.3,0.6,1.3,1.3v6.6
				C9.8,211.8,9.2,212.6,8.5,212.6z"/>
		</g>
		<g>
			<path class="st3" d="M75.1,239.1H18.6c-6.3,0-11.6-5.1-11.6-11.6v-7.2c0-0.7,0.6-1.3,1.3-1.3c0.7,0,1.3,0.6,1.3,1.3v7.2
				c0,4.8,4,8.8,8.8,8.8h56.5c4.8,0,8.8-4,8.8-8.8v-77.6c0-0.7,0.6-1.3,1.3-1.3c0.7,0,1.3,0.6,1.3,1.3v77.6
				C86.6,233.9,81.3,239.1,75.1,239.1z"/>
		</g>
		<g>
			<path class="st3" d="M8.5,185.8c-0.7,0-1.3-0.6-1.3-1.3v-76.7c0-6.3,5.1-11.6,11.6-11.6h56.5c6.3,0,11.6,5.1,11.6,11.6v20.8
				c0,0.7-0.6,1.3-1.3,1.3c-0.7,0-1.3-0.6-1.3-1.3v-20.9c0-4.8-4-8.8-8.8-8.8H18.6c-4.8,0-8.8,4-8.8,8.8v76.7
				C9.8,185.1,9.2,185.8,8.5,185.8z"/>
		</g>
	</g>
	<g id="hand_1_">
		<ellipse class="st3" cx="144.1" cy="175" rx="48.6" ry="62.8"/>
		<path class="st6" d="M197.3,174.8c0,30.3-16.2,55.3-37.3,59.4c-2,0.4-4.1,0.6-6.1,0.6c-24,0-43.5-26.8-43.5-60
			c0-6.4,0.7-12.4,2-18.3c4.7-20.5,17.3-36.3,32.8-40.5h0.1c2.6-0.7,5.4-1,8.2-1.2h0.1h0.1C177.8,114.8,197.3,141.6,197.3,174.8z"/>
		<path class="st2" d="M291.2,242.3c2.6,7.2,1.3,13.8-2.8,16.2c-4.1,2.3-8.8,0.6-8.8,0.6s-0.4,6.7-4.2,9.8c-6.4,5-14.9,0.9-14.9,0.9
			s-0.1,2.5-7.8,4.1c-11.1,2.3-17.6-3.5-17.6-3.5s-2,5.6-10.4,5.9c-0.9,0-2.2-0.3-3.8-0.9c-5-1.8-12.9-6.1-21.2-11.3
			c0,0-0.1,0-0.1-0.1c-7.2-4.4-14.6-9.4-20.9-14c-6.7-5-12.3-9.4-14.5-12.1c-9.4-11.6-23.6-64.1-31.9-74.3c-0.6-0.7-1.3-1.5-1.9-2
			c-3.7-3.7-7.6-5-11.4-5.3c-2.3-0.1-4.5,0-6.4,0.3c3.7-16,12-29,22.8-36c3.1-2,6.4-3.5,10-4.5h0.1c1.9-0.3,4.7-0.6,8.2-1.2h0.1
			c11.6-1.5,29.7-3.5,41.4-1.8c16.2,2.3,33.5,9.4,43.9,14.9c10.4,5.6,29.7,22.4,36.9,25.2c7.3,2.8,16.5,4.5,17,9.7
			c0.1,1.6-0.1,3.7-0.9,5.6c-1.6,4.4-5.6,8.9-12.1,10c-9.7,1.3-21.1-3.1-26.3-5.1c-5.1-2-10.7-6.6-12.4-4.5c-1.8,2,8,26.8,16.4,36.7
			C265,214.6,287.1,231.3,291.2,242.3z"/>
		<g>
			<path class="st0" d="M279.4,259c-0.6,0-1.2-0.4-1.3-1.2c0,0-0.7-3.7-1.9-7.8c-1.5-5.3-9.4-10.7-15.5-15.1
				c-2.2-1.5-4.1-2.9-5.7-4.1c-6.6-5.3-14.6-16.2-15.1-16.7c-0.4-0.6-0.3-1.5,0.3-1.9c0.6-0.4,1.5-0.3,1.9,0.3
				c0.1,0.1,8.2,11.1,14.5,16.1c1.6,1.2,3.5,2.6,5.6,4.1c7,4.8,14.9,10.4,16.7,16.5c1.2,4.2,1.9,7.9,1.9,8c0.1,0.7-0.3,1.5-1,1.6
				C279.5,259,279.4,259,279.4,259z"/>
		</g>
		<g>
			<path class="st0" d="M260.3,269.3L260.3,269.3c-0.7,0-1.3-0.6-1.3-1.3c0,0,0-6.6-1.6-12.1c-1.3-4.7-5.6-7.6-13.2-12.9l-2.6-1.9
				c-9.5-6.7-18-21.4-18.3-22c-0.4-0.7-0.1-1.5,0.4-1.9c0.7-0.4,1.5-0.1,1.9,0.4c0.1,0.1,8.6,14.8,17.6,21.1l2.6,1.9
				c7.9,5.4,12.6,8.8,14.2,14.5c1.6,5.9,1.6,12.6,1.6,12.9C261.8,268.8,261.1,269.3,260.3,269.3z"/>
		</g>
		<g>
			<path class="st0" d="M235.3,270.4L235.3,270.4c-0.7,0-1.5-0.6-1.3-1.5c0-0.1,0.1-7.3-2.6-12.7c-2.2-4.1-7-8.3-11.3-11.9
				c-2.3-2-4.5-3.8-6-5.6c-4.1-4.5-9.5-14.2-9.7-14.6c-0.4-0.7-0.1-1.5,0.6-1.9c0.7-0.4,1.5-0.1,1.9,0.6c0,0.1,5.6,9.8,9.4,14
				c1.3,1.5,3.5,3.4,5.7,5.3c4.5,3.8,9.5,8.2,12,12.7c3.1,6,3.1,13.8,3.1,14C236.6,269.6,236,270.4,235.3,270.4z"/>
		</g>
		<g>
			<path class="st0" d="M187.4,160c-0.4,0-0.9-0.1-1.2-0.6c-7.2-10.8-17.7-14.6-17.9-14.6c-0.7-0.3-1.2-1-0.9-1.8
				c0.3-0.7,1-1.2,1.8-0.9c0.4,0.1,11.4,4.1,19.2,15.8c0.4,0.6,0.3,1.5-0.4,1.9C188,159.9,187.7,160,187.4,160z"/>
		</g>
		<path class="st0" d="M135.3,120.5c0,0-12,12.9-14.6,24.3c-0.9,3.5-1.3,7.6-1.8,11.4c-2.3-0.1-4.5,0-6.4,0.3
			C116.2,140.6,124.5,127.5,135.3,120.5z"/>
	</g>
	<g>
		<g>
			<path class="st1" d="M177.2,198.4c-4-3.5-4.2-9.4-0.7-13.3c3.5-4,9.4-4.2,13.3-0.7l32.9,29.3c4,3.5,4.2,9.4,0.7,13.3
				c-3.5,4-9.4,4.2-13.3,0.7L187.9,208L177.2,198.4z"/>
			<path class="st3" d="M216.4,231.3c-2.5,0-5.1-0.9-7.2-2.8L187,208.9c-0.6-0.4-0.6-1.3-0.1-1.9c0.4-0.6,1.3-0.6,1.9-0.1l22.2,19.6
				c1.6,1.5,3.7,2,5.9,2c2.2-0.1,4.1-1,5.6-2.6c2.9-3.4,2.6-8.3-0.7-11.3l-32.9-29.3c-1.6-1.5-3.7-2-5.9-2c-2.2,0.1-4.1,1-5.6,2.6
				c-2.9,3.4-2.6,8.3,0.7,11.3c0.6,0.4,0.6,1.3,0.1,1.9c-0.4,0.6-1.3,0.6-1.9,0.1c-4.4-4-4.8-10.8-0.9-15.2c1.9-2.2,4.5-3.4,7.5-3.7
				c2.9-0.1,5.7,0.7,7.8,2.6l32.9,29.3c4.4,4,4.8,10.8,0.9,15.2C222.4,230.1,219.4,231.3,216.4,231.3z"/>
		</g>
		<g>
			<path class="st4" d="M206.2,198.8l17.1,15.2c3.5,3.1,3.5,8.8,0.1,12.6c-3.5,4-9.1,4.5-12.6,1.5l-17.1-15.2l4.4-5L206.2,198.8z"/>
			<path class="st5" d="M216.1,231.6c-2.2,0-4.4-0.7-6.1-2.3L192.9,214c-0.3-0.3-0.4-0.6-0.4-1c0-0.3,0.1-0.7,0.3-1l4.4-5
				c0.4-0.6,1.3-0.6,1.9-0.1c0.6,0.4,0.6,1.3,0.1,1.9l-3.5,4l16.1,14.3c2.9,2.6,7.6,2,10.5-1.3c1.5-1.6,2.2-3.7,2.2-5.7
				s-0.7-3.8-2.2-5l-17.1-15.2c-0.6-0.4-0.6-1.3-0.1-1.9c0.4-0.6,1.3-0.6,1.9-0.1L224,213c2,1.8,3.1,4.2,3.1,7c0,2.8-1,5.4-2.9,7.6
				C222.3,230.3,219.2,231.6,216.1,231.6z"/>
		</g>
	</g>
	<g>
		<path class="st1" d="M227.3,229.7c-5.1,1-10-2.3-11-7.5l-8.2-43.3c-1-5.1,2.3-10,7.5-11c2.3-0.4,4.7,0,6.6,1.2
			c2.2,1.3,3.8,3.5,4.4,6.3l8.2,43.3C235.7,223.8,232.4,228.8,227.3,229.7z"/>
		<g>
			<path class="st3" d="M225.5,231.3c-2.2,0-4.2-0.6-6-1.9c-2.3-1.6-4-4.1-4.5-6.9l-8.2-43.3c-1.2-5.9,2.8-11.6,8.6-12.6
				c0.7-0.1,1.5,0.3,1.6,1.2c0.1,0.7-0.3,1.5-1.2,1.6c-4.4,0.9-7.2,5-6.4,9.4l8.2,43.3c0.4,2,1.6,4,3.4,5.1c1.8,1.2,4,1.6,6,1.3
				c4.4-0.9,7.2-5,6.4-9.4l-6.6-35c-0.1-0.7,0.3-1.5,1.2-1.6c0.7-0.1,1.5,0.3,1.6,1.2l6.6,35c1.2,5.9-2.8,11.6-8.6,12.6
				C226.8,231.3,226.1,231.3,225.5,231.3z"/>
		</g>
		<g>
			<path class="st7" d="M230.6,197.2l4.2,22.5c0.9,4.5-2.6,9.1-7.6,10.1c-5.1,1-10-1.9-10.8-6.6l-4.2-22.5L230.6,197.2z"/>
			<path class="st8" d="M225.4,231.3c-2,0-4.1-0.6-5.7-1.6c-2.3-1.5-4-3.7-4.4-6.3l-4.2-22.5c-0.1-0.7,0.3-1.5,1.2-1.6l18.4-3.5
				c0.7-0.1,1.5,0.3,1.6,1.2l4.2,22.5c1,5.3-2.9,10.5-8.8,11.7C226.8,231.3,226.1,231.3,225.4,231.3z M213.8,201.7l4,21.2
				c0.3,1.8,1.5,3.4,3.2,4.4s4,1.5,6,1c4.4-0.9,7.3-4.5,6.6-8.5l-4-21.2L213.8,201.7z"/>
		</g>
	</g>
	<g>
		<circle class="st1" cx="210.7" cy="230.1" r="9.7"/>
		<path class="st3" d="M210.7,241.5c-6.3,0-11.4-5.1-11.4-11.4s5.1-11.4,11.4-11.4s11.4,5.1,11.4,11.4S217,241.5,210.7,241.5z
			 M210.7,222.2c-4.4,0-7.9,3.5-7.9,7.9c0,4.4,3.5,7.9,7.9,7.9s7.9-3.5,7.9-7.9C218.6,225.7,215.1,222.2,210.7,222.2z"/>
	</g>
	<g>
		<g>
			<path class="st1" d="M225.9,220.5c0-7.9,6.4-14.3,14.3-14.3c7.9,0,14.3,6.4,14.3,14.3c0,7.9-6.4,14.3-14.3,14.3
				C232.4,234.8,225.9,228.4,225.9,220.5z"/>
			<path class="st3" d="M240.4,236.1c-8.6,0-15.8-7-15.8-15.8c0-8.6,7-15.8,15.8-15.8c8.6,0,15.8,7,15.8,15.8
				C256.2,229.1,249.1,236.1,240.4,236.1z M240.4,207.4c-7.2,0-13,5.9-13,13c0,7.2,5.9,13,13,13c7.2,0,13-5.9,13-13
				C253.4,213.3,247.6,207.4,240.4,207.4z"/>
		</g>
		<g>
			<path class="st3" d="M254.8,221.8h-12.4c-0.7,0-1.3-0.6-1.3-1.3s0.6-1.3,1.3-1.3h12.4c0.7,0,1.3,0.6,1.3,1.3
				C256.2,221.2,255.5,221.8,254.8,221.8z"/>
		</g>
		<g>
			<path class="st3" d="M234.1,221.8h-6.7c-0.7,0-1.3-0.6-1.3-1.3s0.6-1.3,1.3-1.3h6.7c0.7,0,1.3,0.6,1.3,1.3
				S234.9,221.8,234.1,221.8z"/>
		</g>
	</g>
	<g>
		<path class="st4" d="M250.2,228.5c0-4.5,3.7-8,8-8c4.5,0,8,3.7,8,8s-3.7,8-8,8C253.9,236.7,250.2,233.1,250.2,228.5z"/>
		<path class="st5" d="M258.4,238c-5.3,0-9.5-4.2-9.5-9.5s4.2-9.5,9.5-9.5s9.5,4.2,9.5,9.5C267.9,233.8,263.5,238,258.4,238z
			 M258.4,221.8c-3.7,0-6.7,3.1-6.7,6.7s3.1,6.7,6.7,6.7s6.7-3.1,6.7-6.7S262.1,221.8,258.4,221.8z"/>
	</g>
</g>
</svg>
