<?xml version="1.0" encoding="utf-8"?>
<!-- Generator: Adobe Illustrator 22.1.0, SVG Export Plug-In . SVG Version: 6.00 Build 0)  -->
<svg version="1.1" id="Layer_1" xmlns="http://www.w3.org/2000/svg" xmlns:xlink="http://www.w3.org/1999/xlink" x="0px" y="0px"
	 viewBox="0 0 300 300" style="enable-background:new 0 0 300 300;" xml:space="preserve">
<style type="text/css">
	.st0{fill:#E6EBEF;}
	.st1{fill:#1F4386;}
	.st2{fill:#66C6C6;}
	.st3{fill:#FFFFFF;}
	.st4{fill:#ACDDDE;}
	.st5{fill:#F4F5F5;}
	.st6{fill:none;stroke:#1F4386;stroke-width:5;stroke-miterlimit:10;}
	.st7{fill:none;stroke:#66C6C6;stroke-width:5;stroke-miterlimit:10;}
	.st8{fill:#FCF9F9;}
	.st9{fill:#939AA0;}
	.st10{fill:#81F2EF;}
	.st11{fill:#2D918A;}
	.st12{fill:#1E5259;}
	.st13{fill:#FF7769;}
	.st14{fill:#DD4231;}
</style>
<path class="st0" d="M161.1,82.5c16.9,2.8,32.1,14.4,39.3,29.9c3.2,6.8,4.8,14.5,3.6,22c-1.2,7.4-5.7,14.5-12.4,17.9
	c-5.7,2.9-12.4,2.9-18.7,2.2c-19.5-2.1-38.1-10.7-52.4-24.2c-4.5-4.2-8.7-9.1-10.4-15.1c-5.6-18.8,20.4-30.7,35.1-32.8
	C150.5,81.6,155.9,81.6,161.1,82.5z"/>
<g>
	<path class="st1" d="M138,227.3c-0.9,0-1.8,0-2.7,0c-5.6,0-6.8-2-7.7-6.8c-0.6-3.5-0.5-7.1-0.5-10.6c0-1.1,0-2.1,0-3.2
		c-0.1-4.2-1-11.8-6.3-14.9c-2.2-1.3-4.8-1.6-7.5-2c-2.6-0.3-5.2-0.7-7.7-1.8c-5.7-2.6-8.6-8.3-11.3-14.5l-7.1-16.1
		c-0.8-1.9-1.7-4-2-6.2c-0.3-2.5,0.3-5,0.8-7.1c4.1-17.7,8.8-37.7,21.7-52.6c14-16,37.4-23.7,58.3-19.1
		c20.9,4.6,38.8,20.8,45.5,41.3c6.6,20.2,2,44-11.8,60.4c-2,2.4-4.3,4.7-6.4,6.9c-2.5,2.6-5.1,5.2-7.3,8.1
		c-3.3,4.2-7.1,10.7-6.6,17.6c0.1,1.3,0.3,2.6,0.6,4c0.7,4.1,1.4,8.3-1.1,11.8c-2.8,4-8,4.6-13.2,4.6c-3.4,0-6.8,0.1-10.2,0.1
		C149.9,227.2,143.9,227.3,138,227.3z M153.9,74.1c-16.4,0-33,7.1-43.7,19.4c-12.5,14.3-17,33.9-21.1,51.3c-0.5,2-1,4.1-0.7,6.1
		c0.2,1.8,1,3.6,1.7,5.3l7.1,16.1c2.5,5.6,5,10.7,9.8,12.9c2,0.9,4.3,1.3,6.8,1.6c2.9,0.4,6,0.8,8.7,2.4c3.5,2,7.6,6.7,7.8,17.5l0,0
		c0,1.1,0,2.2,0,3.3c-0.1,3.3-0.1,6.8,0.4,10c0.7,3.9,1.1,4.3,4.6,4.3c6.8,0,13.7,0,20.4-0.1c3.4,0,6.8-0.1,10.2-0.1
		c4.4,0,8.7-0.4,10.7-3.3c1.8-2.5,1.2-5.9,0.6-9.5c-0.2-1.4-0.5-2.9-0.6-4.3c-0.6-7.9,3.6-15.1,7.2-19.8c2.3-3,5-5.7,7.5-8.3
		c2.1-2.2,4.3-4.4,6.3-6.8c13.1-15.7,17.5-38.2,11.2-57.5c-6.4-19.5-23.4-34.9-43.3-39.2C161.7,74.5,157.8,74.1,153.9,74.1z"/>
</g>
<g>
	<path class="st1" d="M150,264.6c-1.4,0-2.7,0-4.1-0.1c-0.6,0-1-0.5-1-1c0-0.6,0.5-1,1-1c2.6,0.1,5.3,0.1,7.9,0c0.5,0,1,0.4,1,1
		c0,0.6-0.4,1-1,1C152.6,264.5,151.3,264.6,150,264.6z M161.8,264c-0.5,0-0.9-0.4-1-0.9c-0.1-0.5,0.3-1,0.9-1.1
		c2.6-0.3,5.2-0.6,7.8-1.1c0.5-0.1,1.1,0.3,1.2,0.8c0.1,0.5-0.3,1.1-0.8,1.2c-2.6,0.5-5.3,0.8-7.9,1.1
		C161.9,264,161.8,264,161.8,264z M138.1,264c0,0-0.1,0-0.1,0c-2.6-0.3-5.3-0.6-7.9-1.1c-0.5-0.1-0.9-0.6-0.8-1.2
		c0.1-0.5,0.6-0.9,1.2-0.8c2.6,0.5,5.2,0.8,7.8,1.1c0.5,0.1,0.9,0.5,0.9,1.1C139,263.6,138.6,264,138.1,264z M177.4,261.2
		c-0.4,0-0.9-0.3-1-0.8c-0.1-0.5,0.2-1.1,0.7-1.2c2.5-0.6,5.1-1.4,7.6-2.2c0.5-0.2,1.1,0.1,1.3,0.6c0.2,0.5-0.1,1.1-0.6,1.3
		c-2.5,0.8-5.1,1.6-7.7,2.2C177.6,261.2,177.5,261.2,177.4,261.2z M122.4,261.2c-0.1,0-0.2,0-0.2,0c-2.6-0.6-5.2-1.4-7.7-2.2
		c-0.5-0.2-0.8-0.7-0.6-1.3c0.2-0.5,0.7-0.8,1.3-0.6c2.5,0.8,5,1.5,7.6,2.2c0.5,0.1,0.9,0.7,0.7,1.2
		C123.3,260.9,122.9,261.2,122.4,261.2z M192.5,256.4c-0.4,0-0.8-0.2-0.9-0.6c-0.2-0.5,0-1.1,0.6-1.3c2.4-1,4.8-2.1,7.2-3.2
		c0.5-0.2,1.1,0,1.3,0.5c0.2,0.5,0,1.1-0.5,1.3c-2.4,1.2-4.9,2.3-7.3,3.3C192.8,256.3,192.6,256.4,192.5,256.4z M107.4,256.3
		c-0.1,0-0.3,0-0.4-0.1c-2.5-1-4.9-2.1-7.3-3.3c-0.5-0.2-0.7-0.8-0.5-1.3c0.2-0.5,0.8-0.7,1.3-0.5c2.3,1.1,4.8,2.2,7.2,3.2
		c0.5,0.2,0.8,0.8,0.6,1.3C108.1,256.1,107.8,256.3,107.4,256.3z M206.8,249.4c-0.3,0-0.7-0.2-0.9-0.5c-0.3-0.5-0.1-1.1,0.4-1.4
		c2.3-1.3,4.5-2.7,6.7-4.2c0.5-0.3,1.1-0.2,1.4,0.3c0.3,0.5,0.2,1.1-0.3,1.4c-2.2,1.5-4.5,2.9-6.8,4.2
		C207.1,249.4,207,249.4,206.8,249.4z M93.1,249.3c-0.2,0-0.3,0-0.5-0.1c-2.3-1.3-4.6-2.8-6.8-4.2c-0.5-0.3-0.6-0.9-0.3-1.4
		c0.3-0.5,0.9-0.6,1.4-0.3c2.2,1.5,4.4,2.9,6.7,4.2c0.5,0.3,0.6,0.9,0.4,1.4C93.8,249.2,93.5,249.3,93.1,249.3z M219.9,240.5
		c-0.3,0-0.6-0.1-0.8-0.4c-0.3-0.4-0.3-1.1,0.2-1.4c2.1-1.6,4.1-3.3,6-5.1c0.4-0.4,1-0.3,1.4,0.1c0.4,0.4,0.3,1-0.1,1.4
		c-2,1.8-4,3.5-6.1,5.1C220.4,240.5,220.1,240.5,219.9,240.5z M80,240.5c-0.2,0-0.4-0.1-0.6-0.2c-2.1-1.6-4.2-3.4-6.1-5.1
		c-0.4-0.4-0.4-1-0.1-1.4c0.4-0.4,1-0.4,1.4-0.1c1.9,1.7,4,3.4,6,5.1c0.4,0.3,0.5,1,0.2,1.4C80.6,240.3,80.3,240.5,80,240.5z
		 M231.7,229.9c-0.3,0-0.5-0.1-0.7-0.3c-0.4-0.4-0.4-1,0-1.4c1.8-1.9,3.6-3.8,5.3-5.8c0.4-0.4,1-0.5,1.4-0.1c0.4,0.4,0.5,1,0.1,1.4
		c-1.7,2-3.5,4-5.4,5.9C232.2,229.8,232,229.9,231.7,229.9z M68.2,229.9c-0.3,0-0.5-0.1-0.7-0.3c-1.8-1.9-3.6-3.9-5.4-5.9
		c-0.4-0.4-0.3-1.1,0.1-1.4c0.4-0.4,1.1-0.3,1.4,0.1c1.7,2,3.5,4,5.3,5.8c0.4,0.4,0.4,1,0,1.4C68.7,229.8,68.5,229.9,68.2,229.9z
		 M241.9,217.8c-0.2,0-0.4-0.1-0.6-0.2c-0.4-0.3-0.5-1-0.2-1.4c1.5-2.1,3-4.3,4.4-6.5c0.3-0.5,0.9-0.6,1.4-0.3
		c0.5,0.3,0.6,0.9,0.3,1.4c-1.4,2.2-2.9,4.5-4.5,6.6C242.5,217.6,242.2,217.8,241.9,217.8z M58,217.7c-0.3,0-0.6-0.1-0.8-0.4
		c-1.6-2.2-3.1-4.4-4.5-6.6c-0.3-0.5-0.2-1.1,0.3-1.4c0.5-0.3,1.1-0.2,1.4,0.3c1.4,2.2,2.9,4.4,4.4,6.5c0.3,0.4,0.2,1.1-0.2,1.4
		C58.4,217.7,58.2,217.7,58,217.7z M250.3,204.4c-0.2,0-0.3,0-0.5-0.1c-0.5-0.3-0.7-0.9-0.4-1.4c1.2-2.3,2.4-4.7,3.5-7.1
		c0.2-0.5,0.8-0.7,1.3-0.5c0.5,0.2,0.7,0.8,0.5,1.3c-1.1,2.4-2.3,4.8-3.5,7.2C251,204.2,250.7,204.4,250.3,204.4z M49.6,204.3
		c-0.4,0-0.7-0.2-0.9-0.5c-1.3-2.3-2.4-4.8-3.5-7.2c-0.2-0.5,0-1.1,0.5-1.3c0.5-0.2,1.1,0,1.3,0.5c1.1,2.4,2.2,4.8,3.5,7.1
		c0.3,0.5,0.1,1.1-0.4,1.4C49.9,204.2,49.8,204.3,49.6,204.3z M256.8,189.9c-0.1,0-0.2,0-0.3-0.1c-0.5-0.2-0.8-0.8-0.6-1.3
		c0.9-2.5,1.7-5,2.4-7.5c0.2-0.5,0.7-0.8,1.2-0.7c0.5,0.2,0.8,0.7,0.7,1.2c-0.7,2.6-1.6,5.1-2.5,7.6
		C257.6,189.6,257.2,189.9,256.8,189.9z M43.2,189.8c-0.4,0-0.8-0.3-0.9-0.7c-0.9-2.5-1.7-5.1-2.5-7.6c-0.2-0.5,0.2-1.1,0.7-1.2
		c0.5-0.2,1.1,0.2,1.2,0.7c0.7,2.5,1.5,5,2.4,7.5c0.2,0.5-0.1,1.1-0.6,1.3C43.4,189.8,43.3,189.8,43.2,189.8z M261.2,174.7
		c-0.1,0-0.1,0-0.2,0c-0.5-0.1-0.9-0.6-0.8-1.2c0.5-2.5,1-5.2,1.4-7.7c0.1-0.5,0.6-0.9,1.1-0.9c0.5,0.1,0.9,0.6,0.9,1.1
		c-0.4,2.6-0.8,5.3-1.4,7.9C262.1,174.3,261.6,174.7,261.2,174.7z M38.8,174.5c-0.5,0-0.9-0.3-1-0.8c-0.5-2.6-1-5.2-1.4-7.9
		c-0.1-0.5,0.3-1.1,0.9-1.1c0.5-0.1,1.1,0.3,1.1,0.9c0.4,2.6,0.8,5.2,1.4,7.7c0.1,0.5-0.2,1.1-0.8,1.2
		C38.9,174.5,38.9,174.5,38.8,174.5z M263.4,159C263.4,159,263.3,159,263.4,159c-0.6,0-1-0.5-1-1.1c0.2-2.6,0.3-5.2,0.3-7.9
		c0-0.6,0.4-1,1-1c0,0,0,0,0,0c0.6,0,1,0.4,1,1c0,2.7-0.1,5.4-0.3,8C264.3,158.6,263.9,159,263.4,159z M36.6,158.8
		c-0.5,0-1-0.4-1-0.9c-0.2-2.6-0.3-5.3-0.3-8l0-0.3c0-0.6,0.5-1,1-1c0.6,0,1,0.5,1,1l0,0.3c0,2.6,0.1,5.3,0.3,7.9
		C37.6,158.3,37.2,158.8,36.6,158.8C36.7,158.8,36.6,158.8,36.6,158.8z M263.4,143.1c-0.5,0-1-0.4-1-0.9c-0.2-2.6-0.4-5.2-0.8-7.8
		c-0.1-0.5,0.3-1.1,0.9-1.1c0.5-0.1,1.1,0.3,1.1,0.9c0.4,2.6,0.6,5.3,0.8,8C264.4,142.6,264,143.1,263.4,143.1
		C263.4,143.1,263.4,143.1,263.4,143.1z M36.6,142.7C36.6,142.7,36.6,142.7,36.6,142.7c-0.6,0-1-0.5-1-1.1c0.2-2.7,0.5-5.3,0.8-8
		c0.1-0.5,0.6-0.9,1.1-0.8c0.5,0.1,0.9,0.6,0.9,1.1c-0.4,2.6-0.6,5.2-0.8,7.8C37.6,142.3,37.1,142.7,36.6,142.7z M261.2,127.4
		c-0.5,0-0.9-0.3-1-0.8c-0.5-2.6-1.2-5.1-1.9-7.6c-0.2-0.5,0.2-1.1,0.7-1.2c0.5-0.2,1.1,0.2,1.2,0.7c0.7,2.6,1.4,5.2,1.9,7.8
		c0.1,0.5-0.2,1.1-0.8,1.2C261.4,127.4,261.3,127.4,261.2,127.4z M38.8,127c-0.1,0-0.1,0-0.2,0c-0.5-0.1-0.9-0.6-0.8-1.2
		c0.6-2.6,1.2-5.2,1.9-7.8c0.2-0.5,0.7-0.8,1.2-0.7c0.5,0.2,0.8,0.7,0.7,1.2c-0.7,2.5-1.4,5.1-1.9,7.6C39.7,126.7,39.3,127,38.8,127
		z M256.9,112.2c-0.4,0-0.8-0.3-0.9-0.7c-0.9-2.5-1.9-4.9-2.9-7.3c-0.2-0.5,0-1.1,0.5-1.3c0.5-0.2,1.1,0,1.3,0.5
		c1.1,2.4,2.1,4.9,3,7.4c0.2,0.5-0.1,1.1-0.6,1.3C257.1,112.1,257,112.2,256.9,112.2z M43.2,111.8c-0.1,0-0.2,0-0.3-0.1
		c-0.5-0.2-0.8-0.8-0.6-1.3c0.9-2.5,1.9-5,3-7.4c0.2-0.5,0.8-0.7,1.3-0.5c0.5,0.2,0.7,0.8,0.5,1.3c-1.1,2.4-2.1,4.8-3,7.3
		C44,111.5,43.7,111.8,43.2,111.8z M250.5,97.7c-0.4,0-0.7-0.2-0.9-0.5c-1.2-2.3-2.5-4.6-3.9-6.8c-0.3-0.5-0.1-1.1,0.3-1.4
		c0.5-0.3,1.1-0.2,1.4,0.3c1.4,2.3,2.8,4.6,4,6.9c0.3,0.5,0.1,1.1-0.4,1.4C250.8,97.6,250.6,97.7,250.5,97.7z M49.7,97.3
		c-0.2,0-0.3,0-0.5-0.1c-0.5-0.3-0.7-0.9-0.4-1.4c1.3-2.3,2.6-4.7,4-6.9c0.3-0.5,0.9-0.6,1.4-0.3c0.5,0.3,0.6,0.9,0.3,1.4
		c-1.4,2.2-2.7,4.5-3.9,6.8C50.4,97.1,50.1,97.3,49.7,97.3z M242,84.2c-0.3,0-0.6-0.1-0.8-0.4c-1.5-2.1-3.2-4.2-4.8-6.2
		c-0.4-0.4-0.3-1.1,0.1-1.4c0.4-0.4,1.1-0.3,1.4,0.1c1.7,2,3.4,4.2,4.9,6.3c0.3,0.4,0.2,1.1-0.2,1.4C242.5,84.1,242.3,84.2,242,84.2
		z M58.2,83.9c-0.2,0-0.4-0.1-0.6-0.2c-0.4-0.3-0.5-1-0.2-1.4c1.6-2.1,3.2-4.3,4.9-6.3c0.4-0.4,1-0.5,1.4-0.1c0.4,0.4,0.5,1,0.1,1.4
		c-1.7,2-3.3,4.1-4.9,6.2C58.8,83.8,58.5,83.9,58.2,83.9z M231.9,72c-0.3,0-0.5-0.1-0.7-0.3c-1.8-1.9-3.7-3.7-5.6-5.5
		c-0.4-0.4-0.4-1-0.1-1.4c0.4-0.4,1-0.4,1.4-0.1c2,1.8,3.9,3.7,5.7,5.6c0.4,0.4,0.4,1,0,1.4C232.4,72,232.1,72,231.9,72z M68.4,71.8
		c-0.3,0-0.5-0.1-0.7-0.3c-0.4-0.4-0.4-1,0-1.4c1.8-1.9,3.8-3.8,5.8-5.5c0.4-0.4,1-0.3,1.4,0.1c0.4,0.4,0.3,1-0.1,1.4
		c-1.9,1.7-3.8,3.6-5.7,5.5C68.9,71.7,68.6,71.8,68.4,71.8z M220.1,61.4c-0.2,0-0.4-0.1-0.6-0.2c-2.1-1.6-4.2-3.2-6.3-4.6
		c-0.5-0.3-0.6-0.9-0.3-1.4s0.9-0.6,1.4-0.3c2.2,1.5,4.4,3.1,6.5,4.7c0.4,0.3,0.5,1,0.2,1.4C220.7,61.3,220.4,61.4,220.1,61.4z
		 M80.2,61.2c-0.3,0-0.6-0.1-0.8-0.4c-0.3-0.4-0.3-1.1,0.2-1.4c2.1-1.6,4.3-3.2,6.5-4.7c0.5-0.3,1.1-0.2,1.4,0.3
		c0.3,0.5,0.2,1.1-0.3,1.4c-2.2,1.5-4.3,3-6.4,4.6C80.6,61.1,80.4,61.2,80.2,61.2z M207,52.5c-0.2,0-0.3,0-0.5-0.1
		c-2.3-1.3-4.6-2.6-6.9-3.7c-0.5-0.2-0.7-0.8-0.5-1.3c0.2-0.5,0.8-0.7,1.3-0.5c2.4,1.2,4.8,2.4,7.1,3.8c0.5,0.3,0.6,0.9,0.4,1.4
		C207.7,52.3,207.3,52.5,207,52.5z M93.3,52.3c-0.3,0-0.7-0.2-0.9-0.5c-0.3-0.5-0.1-1.1,0.4-1.4c2.3-1.3,4.7-2.6,7.1-3.8
		c0.5-0.2,1.1,0,1.3,0.5c0.2,0.5,0,1.1-0.5,1.3c-2.3,1.1-4.7,2.4-7,3.7C93.7,52.3,93.5,52.3,93.3,52.3z M192.8,45.6
		c-0.1,0-0.3,0-0.4-0.1c-2.4-1-4.9-1.9-7.4-2.7c-0.5-0.2-0.8-0.7-0.6-1.3c0.2-0.5,0.7-0.8,1.3-0.6c2.5,0.8,5.1,1.7,7.5,2.7
		c0.5,0.2,0.8,0.8,0.6,1.3C193.5,45.3,193.2,45.6,192.8,45.6z M107.6,45.4c-0.4,0-0.8-0.2-0.9-0.6c-0.2-0.5,0-1.1,0.6-1.3
		c2.5-1,5-1.9,7.5-2.7c0.5-0.2,1.1,0.1,1.3,0.6c0.2,0.5-0.1,1.1-0.6,1.3c-2.5,0.8-5,1.7-7.4,2.7C107.9,45.4,107.7,45.4,107.6,45.4z
		 M177.7,40.6c-0.1,0-0.2,0-0.2,0c-2.5-0.6-5.1-1.2-7.7-1.6c-0.5-0.1-0.9-0.6-0.8-1.2c0.1-0.5,0.6-0.9,1.2-0.8
		c2.6,0.5,5.3,1,7.8,1.7c0.5,0.1,0.9,0.7,0.7,1.2C178.5,40.3,178.1,40.6,177.7,40.6z M122.7,40.5c-0.4,0-0.9-0.3-1-0.8
		c-0.1-0.5,0.2-1.1,0.7-1.2c2.6-0.6,5.2-1.2,7.8-1.6c0.5-0.1,1.1,0.3,1.2,0.8c0.1,0.5-0.3,1.1-0.8,1.2c-2.6,0.4-5.2,1-7.7,1.6
		C122.9,40.5,122.8,40.5,122.7,40.5z M162.1,37.9c0,0-0.1,0-0.1,0c-2.6-0.3-5.2-0.5-7.8-0.6c-0.6,0-1-0.5-1-1c0-0.6,0.5-1,1-1
		c2.7,0.1,5.3,0.3,8,0.6c0.5,0.1,0.9,0.6,0.9,1.1C163,37.5,162.6,37.9,162.1,37.9z M138.3,37.8c-0.5,0-0.9-0.4-1-0.9
		c-0.1-0.5,0.3-1,0.9-1.1c2.6-0.3,5.3-0.4,8-0.5c0.6,0,1,0.4,1,1c0,0.6-0.4,1-1,1c-2.6,0.1-5.3,0.3-7.8,0.5
		C138.4,37.8,138.4,37.8,138.3,37.8z"/>
</g>
<ellipse transform="matrix(0.9871 -0.1602 0.1602 0.9871 -3.8984 24.4978)" class="st2" cx="150" cy="36.4" rx="22.4" ry="22.4"/>
<path class="st3" d="M153.9,49.1v-8.7h8.7c0.8,0,1.4-0.6,1.4-1.4v-5.1c0-0.8-0.6-1.4-1.4-1.4h-8.7v-8.7c0-0.8-0.6-1.4-1.4-1.4h-5.1
	c-0.8,0-1.4,0.6-1.4,1.4v8.7h-8.7c-0.8,0-1.4,0.6-1.4,1.4V39c0,0.8,0.6,1.4,1.4,1.4h8.7v8.7c0,0.8,0.6,1.4,1.4,1.4h5.1
	C153.3,50.5,153.9,49.9,153.9,49.1z"/>
<g>
	
		<ellipse transform="matrix(0.7071 -0.7071 0.7071 0.7071 -142.4389 183.2642)" class="st2" cx="150" cy="263.6" rx="22.4" ry="22.4"/>
</g>
<g>
	<circle class="st2" cx="263.6" cy="150" r="22.4"/>
</g>
<g>
	<circle class="st2" cx="36.4" cy="150" r="22.4"/>
</g>
<path class="st3" d="M49.5,142.4c-1.8-2.2-4.4-3.4-7.2-3.4c0,0,0,0,0,0c-2.1,0-4.2,0.7-5.8,2.1c-1.9-1.5-4.3-2.3-6.8-2
	c-3.2,0.3-6,2.4-7.6,5.4c-1.5,3-1.5,6.6-0.1,9.5c1.5,3.2,4.3,4.6,7,5.7l0.4,0.1c2.2,0.9,4.3,1.7,5.2,3.5c0.3,0.7,1.1,1.1,1.8,1.1
	c0,0,0.1,0,0.1,0c0,0,0.1,0,0.1,0c0.7,0,1.5-0.4,1.8-1.1c0.9-1.9,2.9-2.7,5.1-3.5c0.3-0.1,0.6-0.2,0.9-0.3c2.4-1,5.7-2.7,7.1-6.6
	C52.6,149.3,51.8,145.2,49.5,142.4z"/>
<path class="st3" d="M165.9,263.6c0-6.2-7.1-11.2-15.9-11.2c-8.8,0-15.9,5-15.9,11.2c0,6.2,7.1,11.2,15.9,11.2
	c1.9,0,3.8-0.3,5.5-0.7l-0.2,3.3l3.7-4.5C163.1,270.8,165.9,267.4,165.9,263.6z"/>
<g>
	<circle class="st4" cx="144.9" cy="263.6" r="1.1"/>
	<path class="st4" d="M150,262.5c-0.6,0-1.1,0.5-1.1,1.1c0,0.6,0.5,1.1,1.1,1.1c0.6,0,1.1-0.5,1.1-1.1
		C151.1,263,150.6,262.5,150,262.5z"/>
	<circle class="st4" cx="155.1" cy="263.6" r="1.1"/>
</g>
<g>
	<path class="st3" d="M263.6,143.2c-3.8,0-6.8,3.1-6.8,6.8c0,3.8,3.1,6.8,6.8,6.8c3.8,0,6.8-3.1,6.8-6.8
		C270.4,146.2,267.3,143.2,263.6,143.2z M263.6,155.3c-2.9,0-5.3-2.4-5.3-5.3c0-2.9,2.4-5.3,5.3-5.3s5.3,2.4,5.3,5.3
		C268.8,152.9,266.5,155.3,263.6,155.3z"/>
	<path class="st3" d="M277.9,152.3v-4.5h-3.1c-0.3-1.5-0.9-2.9-1.7-4.1l2.2-2.2l-3.2-3.2l-2.2,2.2c-1.2-0.8-2.6-1.4-4.1-1.7v-3.1
		h-4.5v3.1c-1.5,0.3-2.9,0.9-4.1,1.7l-2.2-2.2l-3.2,3.2l2.2,2.2c-0.8,1.2-1.4,2.6-1.7,4.1h-3.1v4.5h3.1c0.3,1.5,0.9,2.9,1.7,4.1
		l-2.2,2.2l3.2,3.2l2.2-2.2c1.2,0.8,2.6,1.4,4.1,1.7v3.1h4.5v-3.1c1.5-0.3,2.9-0.9,4.1-1.7l2.2,2.2l3.2-3.2l-2.2-2.2
		c0.8-1.2,1.4-2.6,1.7-4.1H277.9z M271.9,150c0,4.6-3.8,8.4-8.4,8.4c-4.6,0-8.4-3.8-8.4-8.4c0-4.6,3.8-8.4,8.4-8.4
		C268.2,141.6,271.9,145.4,271.9,150z"/>
</g>
<path class="st2" d="M186.6,113.4c-0.8-0.6-1.7-1.1-2.7-1.4c1.4-2.2,1.5-5.1,0.3-7.5c-1.2-2.3-3.5-4-6.1-4.5c-2.1-0.4-4.4-0.1-6.4,1
	c0.5-1.9,0.2-4-0.8-5.8c-1-1.9-2.8-3.6-5-4.6c-1.9-0.9-4.2-1.3-6.6-1.3c-2.7,0.1-5.2,0.7-7.2,1.8c-2.3,1.3-4,3.3-4.8,5.6
	c-0.3,0-0.7,0-1,0.1c-0.3-1.2-1.2-2.4-2.3-3.2c-1.1-0.7-2.4-1.2-4-1.4c-2.4-0.3-4.7,0-6.7,1c-2.1,1.1-3.8,2.9-4.5,5
	c-0.7,2.2-0.4,4.5,0.7,6.3c-2.2-0.5-4.7-0.1-6.5,1.3c-2,1.5-3.2,3.9-3.1,6.3c0.1,2.5,1.4,4.9,3.5,6.1c0.2,0.1,0.4,0.2,0.7,0.3
	c-1.5,2.2-1.7,5.1-0.6,7.5c1.2,2.4,3.8,4.2,6.5,4.3c0.1,0,0.2,0,0.3,0c1.3,0,2.7-0.4,3.6-1.5c0.1,2,1.2,4,3,5.1
	c1.2,0.8,2.8,1.3,4.3,1.3c0.7,0,1.4-0.1,2.1-0.3c1.5-0.4,2.7-1.1,3.6-2.1c0.5-0.6,0.9-1.2,1.1-1.9c0.5,1.7,1.6,3.2,3,4.2
	c1.3,1,2.8,1.5,4.4,1.5c0.6,0,1.3-0.1,1.9-0.3c0,0,0.1,0.1,0.1,0.1c3.9,1.4,7.3,4.6,9,8.4l0.1,0.2c0.3,0.6,0.5,1.2,1.1,1.7
	c0.4,0.3,0.9,0.4,1.4,0.4c0.5,0,1.1-0.2,1.5-0.5c0.6-0.5,1-1.2,1.2-2.2c0.1-0.2,0.1-0.5,0.1-0.7c0.1-0.5,0.2-0.9,0.3-1.3
	c1.3,0.7,2.7,0.8,3.8,0.8c0.1,0,0.2,0,0.3,0c1.6-0.1,3.1-0.5,4.3-1.3c1.5-0.9,2.5-2.5,2.9-4.1c0.4-1.7,0.1-3.5-0.8-5
	c0,0,0,0-0.1-0.1c0.1,0,0.2-0.1,0.3-0.2c1.4-0.9,2.2-2.7,1.9-4.5c0-0.1,0-0.1,0-0.2c0,0,0.1,0,0.1,0c0,0,0,0,0.1,0
	c1.4-0.2,2.7-1,3.7-2.1c0.9-1,1.4-2.4,1.6-3.9C190.6,118.8,189.2,115.4,186.6,113.4z M171.1,143.7c0,0.2-0.1,0.5-0.1,0.7
	c-0.2,0.9-0.5,1.5-0.9,1.8c-0.6,0.5-1.4,0.5-2,0.1c-0.4-0.3-0.6-0.8-0.9-1.4l-0.1-0.2c-1.7-3.8-5-7-8.8-8.6c1.4-0.7,2.5-1.8,3.1-3.1
	c0.2,0.7,0.5,1.4,1,2c1,1.3,2.6,2.3,4.4,2.7c0.5,0.1,1,0.1,1.4,0.1c0.2,0,0.4,0,0.6,0c0,0,0,0,0,0c0.1,1.7,1.1,3.3,2.7,4.3
	c0,0,0.1,0,0.1,0.1C171.2,142.7,171.1,143.2,171.1,143.7z"/>
<path class="st1" d="M186.6,113.4c-0.8-0.6-1.7-1.1-2.7-1.4c1.4-2.2,1.5-5.1,0.3-7.5c-1.2-2.3-3.5-4-6.1-4.5c-2.1-0.4-4.4-0.1-6.4,1
	c0.5-1.9,0.2-4-0.8-5.8c-1-1.9-2.8-3.6-5-4.6c-1.9-0.9-4.2-1.3-6.6-1.3c-2.7,0.1-5.2,0.7-7.2,1.8c-2.3,1.3-4,3.3-4.8,5.6
	c-0.3,0-0.7,0-1,0.1c-0.3-1.2-1.2-2.4-2.3-3.2c-1.1-0.7-2.4-1.2-4-1.4c-2.4-0.3-4.7,0-6.7,1c-2.1,1.1-3.8,2.9-4.5,5
	c-0.7,2.2-0.4,4.5,0.7,6.3c-2.2-0.5-4.7-0.1-6.5,1.3c-2,1.5-3.2,3.9-3.1,6.3c0.1,2.5,1.4,4.9,3.5,6.1c0.2,0.1,0.4,0.2,0.7,0.3
	c-1.5,2.2-1.7,5.1-0.6,7.5c1.2,2.4,3.8,4.2,6.5,4.3c0.1,0,0.2,0,0.3,0c1.3,0,2.7-0.4,3.6-1.5c0.1,2,1.2,4,3,5.1
	c1.2,0.8,2.8,1.3,4.3,1.3c0.7,0,1.4-0.1,2.1-0.3c1.5-0.4,2.7-1.1,3.6-2.1c0.5-0.6,0.9-1.2,1.1-1.9c0.5,1.7,1.6,3.2,3,4.2
	c1.3,1,2.8,1.5,4.4,1.5c0.6,0,1.3-0.1,1.9-0.3c0,0,0.1,0.1,0.1,0.1c3.9,1.4,7.3,4.6,9,8.4l0.1,0.2c0.3,0.6,0.5,1.2,1.1,1.7
	c0.4,0.3,0.9,0.4,1.4,0.4c0.5,0,1.1-0.2,1.5-0.5c0.6-0.5,1-1.2,1.2-2.2c0.1-0.2,0.1-0.5,0.1-0.7c0.1-0.5,0.2-0.9,0.3-1.3
	c1.3,0.7,2.7,0.8,3.8,0.8c0.1,0,0.2,0,0.3,0c1.6-0.1,3.1-0.5,4.3-1.3c1.5-0.9,2.5-2.5,2.9-4.1c0.4-1.7,0.1-3.5-0.8-5
	c0,0,0,0-0.1-0.1c0.1,0,0.2-0.1,0.3-0.2c1.4-0.9,2.2-2.7,1.9-4.5c0-0.1,0-0.1,0-0.2c0,0,0.1,0,0.1,0c0,0,0,0,0.1,0
	c1.4-0.2,2.7-1,3.7-2.1c0.9-1,1.4-2.4,1.6-3.9C190.6,118.8,189.2,115.4,186.6,113.4z M171.1,143.7c0,0.2-0.1,0.5-0.1,0.7
	c-0.2,0.9-0.5,1.5-0.9,1.8c-0.6,0.5-1.4,0.5-2,0.1c-0.4-0.3-0.6-0.8-0.9-1.4l-0.1-0.2c-1.7-3.8-5-7-8.8-8.6c1.4-0.7,2.5-1.8,3.1-3.1
	c0.2,0.7,0.5,1.4,1,2c1,1.3,2.6,2.3,4.4,2.7c0.5,0.1,1,0.1,1.4,0.1c0.2,0,0.4,0,0.6,0c0,0,0,0,0,0c0.1,1.7,1.1,3.3,2.7,4.3
	c0,0,0.1,0,0.1,0.1C171.2,142.7,171.1,143.2,171.1,143.7z M189.5,121.9c-0.2,1.4-0.7,2.6-1.5,3.5c-0.8,1-2,1.7-3.2,1.9
	c-0.1,0-0.2,0.1-0.2,0.1c-0.5-1.3-1.5-2.5-2.8-3.1c0,0,0,0,0,0c0.6-1.3,0.5-3-0.2-4.2c-0.1-0.2-0.3-0.2-0.5-0.1
	c-0.2,0.1-0.2,0.3-0.1,0.5c0.8,1.3,0.7,3.1-0.3,4.3c-1,1.2-2.7,1.7-4.1,1.2c-0.2-0.1-0.4,0-0.4,0.2c-0.1,0.2,0,0.4,0.2,0.4
	c0.4,0.2,0.9,0.2,1.4,0.2c1.3,0,2.7-0.6,3.5-1.6c0.1-0.1,0.1-0.2,0.2-0.3c0,0,0,0,0.1,0c1.4,0.6,2.4,1.9,2.6,3.3
	c0.2,1.5-0.4,3-1.6,3.8c-1.2,0.8-2.9,0.7-4-0.2c-0.1-0.1-0.4-0.1-0.5,0c-0.1,0.1-0.1,0.4,0,0.5c0.7,0.6,1.6,0.9,2.6,0.9
	c0.5,0,1-0.1,1.4-0.2c0,0.1,0,0.1,0,0.1c0.8,1.3,1,3,0.7,4.5c-0.4,1.5-1.3,2.9-2.6,3.7c-1.1,0.7-2.4,1.1-4,1.1c-1.2,0-3-0.1-4.5-1.1
	c-1.3-0.9-2.3-2.3-2.4-3.8c0,0,0-0.1,0-0.1c0.9-0.2,1.8-0.6,2.5-1.2c1.5-1.3,1.9-3.6,0.9-5.1c-0.1-0.2-0.3-0.2-0.5-0.1
	c-0.2,0.1-0.2,0.3-0.1,0.5c0.8,1.2,0.4,3.1-0.8,4.2c-1.1,1-2.8,1.4-4.6,1c-1.6-0.3-3-1.2-3.9-2.4c-1-1.3-1.3-3-0.9-4.4
	c0.1-0.2-0.1-0.4-0.2-0.4c-0.2-0.1-0.4,0.1-0.4,0.2c-0.1,0.4-0.2,0.8-0.2,1.2c0,0,0,0,0,0.1c-0.2,2-1.7,3.8-3.7,4.5
	c-1.9,0.7-4.2,0.3-5.9-1c-1.6-1.2-2.7-3.2-3-5.3c0-0.1,0-0.1-0.1-0.2c0-0.1,0-0.1,0-0.2c0-0.2-0.2-0.3-0.4-0.3
	c-0.2,0-0.3,0.2-0.3,0.4c0.1,1.2-0.4,2.4-1.2,3.4c-0.8,0.9-1.9,1.5-3.3,1.9c-2.1,0.5-4.3,0.2-5.9-0.9c-1.7-1.1-2.7-3-2.7-4.8
	c0.4,0.1,0.7,0.1,1.1,0.1c0,0,0,0,0,0c1.2,0,2.5-0.4,3.7-1.2c0.2-0.1,0.2-0.3,0.1-0.5c-0.1-0.2-0.3-0.2-0.5-0.1
	c-1.1,0.7-2.3,1.1-3.4,1.1c-1.2,0-2.4-0.5-3.1-1.3c-0.7-0.9-0.9-2.2-0.4-3.1c0.1-0.2,0-0.4-0.1-0.5c-0.2-0.1-0.4,0-0.5,0.1
	c-0.7,1.2-0.5,2.8,0.5,3.9c0.4,0.4,0.8,0.8,1.4,1.1c-0.7,1.2-2.2,1.5-3.4,1.5c-2.4-0.1-4.8-1.7-5.9-3.9c-1-2.2-0.8-5,0.6-6.9
	c0.7,0.2,1.5,0.4,2.3,0.4c1.2,0,2.4-0.3,3.4-0.9c0.2-0.1,0.2-0.3,0.1-0.5c-0.1-0.2-0.3-0.2-0.5-0.1c-1.9,1.1-4.4,1.1-6.3-0.1
	c-1.9-1.1-3.1-3.3-3.2-5.5c-0.1-2.2,1-4.4,2.9-5.7c1.8-1.3,4.3-1.7,6.4-1c0.2,0.1,0.4,0,0.4-0.2c0-0.1,0-0.2,0-0.3
	c0.1-0.1,0.1-0.3,0-0.4c-1.2-1.6-1.5-3.9-0.8-6c0.7-1.9,2.2-3.6,4.1-4.6c1.8-0.9,4-1.2,6.2-0.9c1.5,0.2,2.7,0.6,3.7,1.3
	c1,0.7,1.8,1.7,2.1,2.8c-0.4,0.1-0.7,0.3-1.1,0.6c-1.3,0.9-2.2,2.5-2.2,4.1c0,0.2,0.2,0.4,0.3,0.4c0,0,0,0,0,0
	c0.2,0,0.4-0.2,0.4-0.3c0-1.4,0.7-2.7,1.9-3.5c1.1-0.8,2.7-1,4-0.5c1.3,0.5,2.3,1.7,2.6,3c0,0.2,0.2,0.3,0.4,0.3
	c0.2,0,0.3-0.2,0.3-0.4c-0.4-1.6-1.5-2.9-3-3.5c-0.4-0.1-0.7-0.2-1.1-0.3c0.8-2,2.3-3.8,4.4-5c1.9-1.1,4.3-1.7,6.8-1.8
	c2.4-0.1,4.5,0.4,6.3,1.2c2,0.9,3.7,2.5,4.6,4.3c1,1.9,1.2,4.1,0.5,6c-0.1,0-0.1,0.1-0.2,0.1c-2-1-4.7-0.7-6.3,1
	c-0.1,0.1-0.1,0.4,0,0.5c0.1,0.1,0.4,0.1,0.5,0c1.4-1.4,3.8-1.7,5.6-0.8c1.8,0.9,2.8,3.1,2.5,5.1c0,0.2,0.1,0.4,0.3,0.4
	c0,0,0,0,0.1,0c0.2,0,0.3-0.1,0.3-0.3c0.4-2-0.5-4.2-2.2-5.4c0,0,0,0,0.1-0.1c2-1.2,4.4-1.7,6.6-1.3c2.4,0.5,4.6,2,5.6,4.1
	c1.1,2.2,1,4.9-0.3,6.9c0,0,0,0.1,0,0.1c-2-0.5-4.1-0.3-5.9,0.5c-0.2,0.1-0.3,0.3-0.2,0.5c0.1,0.2,0.3,0.3,0.5,0.2
	c2.7-1.2,6.2-0.8,8.6,1C188.6,115.8,189.9,119,189.5,121.9z"/>
<path class="st5" d="M147,109.7c1,1.1,1.3,2.8,0.7,4.2c-0.1,0.2,0,0.4,0.2,0.5c0,0,0.1,0,0.1,0c0.1,0,0.3-0.1,0.3-0.2
	c0.7-1.6,0.4-3.6-0.8-4.9c-1.2-1.3-3.1-1.9-4.8-1.4c-1.7,0.5-3,2-3.3,3.8c0,0.2,0.1,0.4,0.3,0.4c0.2,0,0.4-0.1,0.4-0.3
	c0.2-1.5,1.4-2.8,2.8-3.2C144.3,108.1,146,108.6,147,109.7z"/>
<path class="st5" d="M168.1,116c-0.2,0-0.3,0.2-0.3,0.4c0,0.2,0.2,0.3,0.4,0.3c2-0.2,4,0.7,5.2,2.2c1.2,1.6,1.3,3.8,0.4,5.6
	c-0.9,1.7-2.9,2.8-4.9,2.6c-0.2,0-0.4,0.1-0.4,0.3c0,0.2,0.1,0.4,0.3,0.4c0.2,0,0.4,0,0.6,0c2,0,4-1.2,5-3c1.1-1.9,0.9-4.5-0.5-6.3
	C172.6,116.7,170.3,115.7,168.1,116z"/>
<g>
	<path class="st5" d="M167.1,122.7c-0.1-0.1-0.4-0.1-0.5,0c-1.1,1.1-2.7,1.6-4.2,1.4c-1.5-0.2-2.9-1.2-3.6-2.5
		c-0.7-1.2-0.8-2.8-0.3-4.1c0.7,0.4,1.5,0.5,2.4,0.5c0.4,0,0.9-0.1,1.3-0.2c1.5-0.4,3-1.7,2.9-3.4c0-0.2-0.2-0.3-0.4-0.3
		c-0.2,0-0.3,0.2-0.3,0.4c0,1.3-1.2,2.4-2.4,2.7c-1.4,0.4-3,0-4.1-1c-1.1-1-1.7-2.5-1.5-4c0-0.2-0.1-0.4-0.3-0.4
		c-0.2,0-0.4,0.1-0.4,0.3c-0.2,1.7,0.5,3.5,1.8,4.6c0.2,0.1,0.3,0.3,0.5,0.4c-0.5,1.3-0.5,2.8,0,4.1l0.4,0.8
		c0.8,1.5,2.4,2.6,4.1,2.8c0.3,0,0.5,0.1,0.8,0.1c1.5,0,3-0.6,4-1.7C167.3,123,167.3,122.8,167.1,122.7z"/>
	<path class="st5" d="M151.2,123.6c0-0.3-0.3-0.4-0.5-0.3c-0.7,0.5-1.6,0.8-2.4,0.8c-1.1,0-2.1-0.3-3-0.9c-0.4-0.3-0.9-0.8-1-1.4
		c0-0.2-0.2-0.3-0.4-0.3c-0.2,0-0.3,0.2-0.3,0.4c0.1,0.9,0.7,1.5,1.2,1.9c0.2,0.2,0.4,0.3,0.7,0.4c0.8,0.5,1.8,0.7,2.8,0.6
		c1,0,2-0.4,2.8-0.9C151.1,123.8,151.2,123.7,151.2,123.6L151.2,123.6z"/>
</g>
<path class="st5" d="M153.1,106.7c0.2,0.1,0.4,0.1,0.5-0.1c1.2-1.9,4-2.7,6-1.9c2.1,0.9,3.4,3.4,3,5.6c0,0.2,0.1,0.4,0.3,0.4
	c0,0,0,0,0.1,0c0.2,0,0.3-0.1,0.3-0.3c0.5-2.6-1-5.4-3.4-6.4c-2.4-1-5.5-0.1-6.9,2.1C152.8,106.4,152.9,106.6,153.1,106.7z"/>
</svg>
