<?xml version="1.0" encoding="utf-8"?>
<!-- Generator: Adobe Illustrator 22.1.0, SVG Export Plug-In . SVG Version: 6.00 Build 0)  -->
<svg version="1.1" id="Layer_1" xmlns="http://www.w3.org/2000/svg" xmlns:xlink="http://www.w3.org/1999/xlink" x="0px" y="0px"
	 viewBox="0 0 300 300" style="enable-background:new 0 0 300 300;" xml:space="preserve">
<style type="text/css">
	.st0{fill:#E6EBEF;}
	.st1{fill:#1F4386;}
	.st2{fill:#66C6C6;}
	.st3{fill:#FFFFFF;}
	.st4{fill:#ACDDDE;}
	.st5{fill:#F4F5F5;}
	.st6{fill:none;stroke:#1F4386;stroke-width:5;stroke-miterlimit:10;}
	.st7{fill:none;stroke:#66C6C6;stroke-width:5;stroke-miterlimit:10;}
	.st8{fill:#FCF9F9;}
	.st9{fill:#939AA0;}
	.st10{fill:#81F2EF;}
	.st11{fill:#2D918A;}
	.st12{fill:#1E5259;}
	.st13{fill:#FF7769;}
	.st14{fill:#DD4231;}
</style>
<path class="st2" d="M244.5,241h-10.8V60.3h-32.7V241h-10.8V132.1h-32.4V241H147V96.2h-32.4V241h-10.8v-91H71v91H60.2v18h184.2V241z
	"/>
<g>
	<path class="st1" d="M115.5,70.3c0,2.9-0.5,5.7-1.4,8.5c-4.3,19.5-41.6,43.1-43.1,44.1c-0.5,0.3-1.1,0.5-1.6,0.5
		c-0.6,0-1.1-0.1-1.6-0.5c-0.4-0.3-10.9-6.9-21.6-16c-1.3-1.1-1.4-3-0.3-4.3c1.1-1.3,3-1.4,4.3-0.3C58,109,66,114.5,69.3,116.7
		c11.2-7.3,35.9-25.9,38.9-39.5c0.8-2.4,1.1-4.6,1.1-6.8c0-7.8-4.2-14.9-11-18.7C89.7,46.8,78,49,71.6,56.7c-1.1,1.4-3.5,1.4-4.7,0
		c-6.4-7.7-18-9.9-26.7-5.1c-6.8,3.8-11.1,10.9-11.1,18.7c0,2.2,0.4,4.4,1.1,6.6c0.4,2,1.3,3.9,2.4,6h17.6l6.1-13.9
		c0.5-1.2,1.8-1.9,3-1.8c1.3,0.1,2.4,1,2.7,2.3l4.5,18.9l5.8-9.5c0.5-0.9,1.5-1.4,2.6-1.4h11c1.7,0,3,1.3,3,3c0,1.7-1.4,3-3,3h-9.3
		l-8.7,14.3c-0.6,0.9-1.5,1.5-2.6,1.5c-0.2,0-0.3,0-0.5,0c-1.2-0.2-2.2-1.1-2.5-2.3l-4.1-17.2L55.1,87c-0.5,1.1-1.6,1.8-2.8,1.8
		H17.1c-1.7,0-3-1.4-3-3c0-1.7,1.4-3,3-3h8.9c-0.6-1.5-1.1-3-1.5-4.4c-0.8-2.4-1.3-5.3-1.3-8.2c0-10,5.4-19.2,14.2-24
		c10.1-5.6,23.6-3.8,32,4c8.4-7.9,21.8-9.6,32-4C110,51.1,115.5,60.3,115.5,70.3z"/>
</g>
</svg>
