<svg xmlns="http://www.w3.org/2000/svg" id="ff44f583-5964-4eb1-a0f6-3d5682c8ba8a" data-name="Layer 1" viewBox="0 0 80 80"><path d="M34.68,76.28,15.16,56.72a4.87,4.87,0,0,1,0-6.87l.53-.52a4.88,4.88,0,0,1,6.87,0l8.86,8.86V22.79a4.88,4.88,0,0,1,4.86-4.86h.4a4.88,4.88,0,0,1,4.86,4.86V41l18.6,3.08s6.07,1.21,6.07,9.17L64.47,75.51" style="fill:none;stroke:#5a84ba;stroke-linejoin:round;stroke-width:2.44442000985146px"/><path d="M26.21,26.66a11.45,11.45,0,1,1,20.38,0" style="fill:none;stroke:#5a84ba;stroke-linejoin:round;stroke-width:2.44442000985146px"/><path d="M20.56,29.29a17.69,17.69,0,1,1,31.68,0" style="fill:none;stroke:#5a84ba;stroke-linejoin:round;stroke-width:2.44442000985146px"/></svg>