<?xml version="1.0" encoding="utf-8"?>
<!-- Generator: Adobe Illustrator 22.1.0, SVG Export Plug-In . SVG Version: 6.00 Build 0)  -->
<svg version="1.1" id="Layer_1" xmlns="http://www.w3.org/2000/svg" xmlns:xlink="http://www.w3.org/1999/xlink" x="0px" y="0px"
	 viewBox="0 0 105.5 132" style="enable-background:new 0 0 105.5 132;" xml:space="preserve">
<g>
	<path d="M2.5,123.6c0-3.6,0-7.2,0-10.8c0-34.3,0-68.6,0-102.9c0-0.5,0-1,0-1.6c0.5,0,0.9,0,1.3,0c31.4,0,62.7,0,94.1,0
		c3.1,0,4.6,1.5,4.6,4.5c0,17.1,0,34.1,0,51.2c0,2.7-1,4-3.7,4.5c-1.3,0.3-2.6,0.5-4,0.8c0,0.5,0,0.9,0,1.4c0,15.9,0,31.7,0,47.6
		c0,2.4-0.6,4.2-2.9,5.1C62.1,123.6,32.3,123.6,2.5,123.6z M29.6,12.3c0,35.9,0,71.7,0,107.5c20.5,0,40.9,0,61.4,0
		c0-0.5,0-0.9,0-1.4c0-12.9,0-25.8,0-38.7c0-4.1,0-8.2,0-12.3c0-0.8,0.2-1.1,1-1.2c1.8-0.3,3.6-0.8,5.4-1.1c1-0.2,1.3-0.5,1.3-1.6
		c0-16.7,0-33.3,0-50c0-0.4,0-0.8,0-1.2C75.5,12.3,52.6,12.3,29.6,12.3z M6.4,119.7c6.4,0,12.7,0,19.1,0c0-35.8,0-71.6,0-107.4
		c-6.4,0-12.8,0-19.1,0C6.4,48.1,6.4,83.9,6.4,119.7z"/>
	<path d="M50.6,54.5c0-4.5,0-9,0-13.4c6.4,0,12.8,0,19.2,0c0,4.4,0,8.8,0,13.4c4.5,0,8.9,0,13.4,0c0,6.4,0,12.8,0,19.2
		c-4.4,0-8.8,0-13.3,0c0,4.5,0,8.9,0,13.4c-6.4,0-12.8,0-19.2,0c0-4.4,0-8.8,0-13.4c-4.5,0-8.9,0-13.4,0c0-6.5,0-12.8,0-19.2
		C41.6,54.5,46,54.5,50.6,54.5z M66,58.4c0-4.6,0-9,0-13.4c-3.9,0-7.6,0-11.6,0c0,4.5,0,8.9,0,13.4c-4.5,0-8.9,0-13.3,0
		c0,3.9,0,7.6,0,11.5c4.5,0,8.9,0,13.4,0c0,4.5,0,8.9,0,13.4c3.9,0,7.7,0,11.5,0c0-4.5,0-8.9,0-13.4c4.5,0,8.9,0,13.3,0
		c0-3.9,0-7.6,0-11.4C74.9,58.4,70.5,58.4,66,58.4z"/>
	<path d="M37.2,31.4c-1.4,0-2.5,0-3.8,0c0-5.1,0-10.1,0-15.2c2.5,0,5,0,7.5,0c0,1.2,0,2.4,0,3.7c-1.2,0-2.4,0-3.7,0
		C37.2,23.7,37.2,27.5,37.2,31.4z"/>
	<path d="M77.5,115.9c0-1.3,0-2.4,0-3.7c1.9,0,3.7,0,5.7,0c0-2,0-3.8,0-5.8c1.4,0,2.5,0,3.8,0c0,3.2,0,6.3,0,9.5
		C83.9,115.9,80.8,115.9,77.5,115.9z"/>
	<path d="M60.2,112.2c4.5,0,8.9,0,13.3,0c0,1.2,0,2.4,0,3.7c-4.4,0-8.8,0-13.3,0C60.2,114.7,60.2,113.5,60.2,112.2z"/>
	<path d="M44.9,16.1c1.2,0,2.4,0,3.7,0c0,1.3,0,2.5,0,3.7c-1.2,0-2.4,0-3.7,0C44.9,18.6,44.9,17.4,44.9,16.1z"/>
	<path d="M83.3,102.4c0-1.3,0-2.5,0-3.7c1.2,0,2.4,0,3.7,0c0,1.2,0,2.4,0,3.7C85.8,102.4,84.6,102.4,83.3,102.4z"/>
	<path d="M10.3,43c3.8,0,7.6,0,11.4,0c0,16.6,0,33.2,0,49.8c-3.8,0-7.6,0-11.4,0C10.3,76.2,10.3,59.7,10.3,43z M17.8,89
		c0-14.1,0-28.1,0-42.1c-1.3,0-2.4,0-3.7,0c0,14.1,0,28.1,0,42.1C15.4,89,16.6,89,17.8,89z"/>
	<path d="M16,100.6c3.2,0,5.7,2.5,5.7,5.7c0,3.2-2.5,5.7-5.7,5.8c-3.1,0.1-5.8-2.6-5.8-5.8C10.3,103.2,12.8,100.6,16,100.6z
		 M17.9,106.4c0-1.1-0.8-1.9-1.9-1.9c-1,0-1.8,0.8-1.8,1.9c0,1,0.9,1.9,1.9,1.9C17.1,108.2,17.9,107.4,17.9,106.4z"/>
</g>
</svg>
