<?xml version="1.0" encoding="utf-8"?>
<!-- Generator: Adobe Illustrator 22.1.0, SVG Export Plug-In . SVG Version: 6.00 Build 0)  -->
<svg version="1.1" id="Layer_1" xmlns="http://www.w3.org/2000/svg" xmlns:xlink="http://www.w3.org/1999/xlink" x="0px" y="0px"
	 viewBox="0 0 300 300" style="enable-background:new 0 0 300 300;" xml:space="preserve">
<style type="text/css">
	.st0{fill:#F4F5F5;}
	.st1{fill:#1F4386;}
	.st2{fill:#66C6C6;}
	.st3{fill:#81F2EF;}
	.st4{fill:#2D918A;}
	.st5{fill:#1E5259;}
	.st6{fill:#6A8F9B;}
	.st7{fill:#FFFFFF;}
	.st8{fill:#939AA0;}
	.st9{fill:#682F2C;}
	.st10{fill:#F9AA8F;}
	.st11{fill:#CC6148;}
	.st12{clip-path:url(#SVGID_2_);fill:#81F2EF;}
	.st13{clip-path:url(#SVGID_2_);fill:#FFFFFF;}
	.st14{clip-path:url(#SVGID_2_);fill:#2D918A;}
	.st15{fill:#FF7769;}
	.st16{fill:#DD4231;}
</style>
<g>
	<g>
		<path class="st3" d="M187.2,182c0,0,0.8-32.3,11.8-43.6c11-11.3,39.5-13.5,39.5-13.5s2.1,33-8.4,43.7
			C212.9,186.2,187.2,182,187.2,182z"/>
		<path class="st4" d="M194.4,183.7c-4.3,0-7.1-0.4-7.4-0.5c-0.6-0.1-1.1-0.6-1-1.3c0-1.3,0.9-32.9,12.2-44.4
			c11.2-11.5,39.2-13.7,40.3-13.8c0.3,0,0.7,0.1,0.9,0.3c0.2,0.2,0.4,0.5,0.4,0.9c0.1,1.4,2,33.6-8.7,44.6
			C219.1,181.6,203.5,183.7,194.4,183.7z M188.4,180.9c5,0.5,26.2,1.8,40.8-13.1c8.8-9,8.3-35.3,8.1-41.4c-5.6,0.6-28.2,3.5-37.5,13
			C190.4,148.9,188.7,175.1,188.4,180.9z"/>
		<path class="st4" d="M207.1,159.2c-0.2,0-0.4,0-0.6-0.2c-0.6-0.3-0.8-1.1-0.5-1.7c5.3-9.7,16.2-19.6,16.7-20.1
			c0.5-0.5,1.3-0.4,1.7,0.1c0.5,0.5,0.4,1.3-0.1,1.7c-0.1,0.1-11,10.1-16.1,19.4C208,159,207.6,159.2,207.1,159.2z"/>
	</g>
	<g>
		<path class="st3" d="M182.3,214.9c0,0,26.3,5,44.7-1.7c18.3-6.7,43-37.7,43-37.7s-15.1-13.6-36.8-16.3
			c-21.7-2.7-38.9,19.3-44.2,27.9C185.1,193.5,182.3,214.9,182.3,214.9z"/>
		<path class="st4" d="M206,200.9c-0.3,0-0.6-0.1-0.9-0.4c-0.5-0.5-0.5-1.3,0-1.7c12-11.6,38.5-23.2,39.6-23.7
			c0.6-0.3,1.4,0,1.6,0.6c0.3,0.6,0,1.4-0.6,1.6c-0.3,0.1-27.1,11.9-38.9,23.2C206.7,200.8,206.3,200.9,206,200.9z"/>
		<path class="st4" d="M203.2,218c-11.3,0-20.5-1.7-21.2-1.8c-0.6-0.1-1.1-0.7-1-1.4c0.1-0.9,2.9-21.7,6.9-28.4
			c2-3.2,20.1-31.6,45.4-28.4c5.2,0.6,10.5,2,15.7,4c0.6,0.2,1,1,0.7,1.6c-0.2,0.6-0.9,1-1.6,0.7c-5-1.9-10.1-3.2-15.2-3.8
			c-19.3-2.4-36.1,16-43,27.3c-3.3,5.3-5.8,21.7-6.4,26.2c5.3,0.8,27.2,3.9,42.9-1.8c16.1-5.8,37.5-31.2,41.7-36.4
			c-1.6-1.3-5.1-4-10.1-6.8c-0.6-0.3-0.8-1.1-0.5-1.7c0.3-0.6,1.1-0.8,1.7-0.5c7.1,4,11.3,7.7,11.5,7.9c0.5,0.4,0.5,1.2,0.1,1.7
			c-1,1.3-25.1,31.4-43.6,38.1C219.8,217.2,211,218,203.2,218z"/>
	</g>
	<g id="background_1_">
		<g>
			<path class="st5" d="M144,267c-45.6,0-82.7-37.1-82.7-82.7s37.1-82.7,82.7-82.7s82.7,37.1,82.7,82.7c0,15.5-4.3,30.6-12.4,43.6
				l-8.8,11.7c0,0.1-0.1,0.1-0.1,0.2c-1.7,1.8-3.4,3.6-5.3,5.3c0.1,1.9,0.4,3.6,0.9,4.7c1.5,3.4,5,5.9,5.1,5.9
				c0.9,0.7,1.3,1.9,0.9,3c-0.4,1.1-1.5,1.7-2.7,1.5l-20.6-3.2C171.5,263.6,157.8,267,144,267z M144,106.6
				c-42.9,0-77.8,34.9-77.8,77.8c0,42.9,34.9,77.8,77.8,77.8c13.3,0,26.4-3.4,37.9-9.9c0.5-0.3,1-0.4,1.6-0.3l14.2,2.2
				c-0.5-0.7-0.9-1.5-1.3-2.3c-1.1-2.6-1.3-5.7-1.3-7.9c0-0.7,0.3-1.3,0.8-1.8c2-1.8,3.9-3.7,5.7-5.6l8.6-11.4
				c7.5-12.1,11.6-26.3,11.6-40.8C221.8,141.4,186.9,106.6,144,106.6z M203.5,238.1L203.5,238.1L203.5,238.1z"/>
		</g>
		<circle class="st6" cx="144.2" cy="184.6" r="79.9"/>
		<path class="st6" d="M68.6,205.5c-0.4,0-0.8-0.2-1-0.6l-18.7-28.5c-0.2-0.3-0.3-0.7-0.2-1c0.1-0.3,0.3-0.6,0.6-0.8l25.2-13.2
			c0.6-0.3,1.4-0.1,1.7,0.5c0.3,0.6,0.1,1.4-0.5,1.7l-24,12.5l17.9,27.4c0.4,0.6,0.2,1.3-0.4,1.7C69,205.4,68.8,205.5,68.6,205.5z"
			/>
	</g>
	<g id="laptop_3_">
		<path class="st6" d="M221.3,292.2h-98.1c-0.9,0-1.6-0.7-1.6-1.6v-2.9c0-0.9,0.7-1.6,1.6-1.6h95.5l50.7-82.2c0.2-0.4,0.6-0.6,1-0.7
			c0.4-0.1,0.9,0,1.3,0.2l2.3,1.5c0.8,0.5,1,1.5,0.5,2.3l-51.9,84.5C222.4,291.9,221.9,292.2,221.3,292.2z"/>
	</g>
	<g id="window_4_3_">
		<path class="st7" d="M51,124.9h106.7c2.7,0,4.8-2.2,4.8-4.8V20.1c0-2.7-2.2-4.8-4.8-4.8H51c-2.7,0-4.8,2.2-4.8,4.8V120
			C46.1,122.7,48.3,124.9,51,124.9z"/>
		<path class="st3" d="M66,31.1c0,1.8-1.4,3.2-3.2,3.2c-1.8,0-3.2-1.4-3.2-3.2c0-1.8,1.4-3.2,3.2-3.2C64.5,28,66,29.4,66,31.1z"/>
		<path class="st3" d="M87,31.1c0,1.8-1.4,3.2-3.2,3.2c-1.8,0-3.2-1.4-3.2-3.2c0-1.8,1.4-3.2,3.2-3.2C85.6,28,87,29.4,87,31.1z"/>
		<path class="st3" d="M108.1,31.1c0,1.8-1.4,3.2-3.2,3.2c-1.8,0-3.2-1.4-3.2-3.2c0-1.8,1.4-3.2,3.2-3.2
			C106.6,28,108.1,29.4,108.1,31.1z"/>
		<path class="st3" d="M129.1,31.1c0,1.8-1.4,3.2-3.2,3.2c-1.8,0-3.2-1.4-3.2-3.2c0-1.8,1.4-3.2,3.2-3.2
			C127.7,28,129.1,29.4,129.1,31.1z"/>
		<path class="st3" d="M150.2,31.1c0,1.8-1.4,3.2-3.2,3.2c-1.8,0-3.2-1.4-3.2-3.2c0-1.8,1.4-3.2,3.2-3.2
			C148.7,28,150.2,29.4,150.2,31.1z"/>
		<g>
			<path class="st8" d="M155.3,126.1v-2.5c3.3,0,6-2.7,6-6V22.5c0-3.3-2.7-6-6-6H53.3c-3.3,0-6,2.7-6,6v95.2c0,3.3,2.7,6,6,6h14v2.5
				h-14c-4.7,0-8.5-3.8-8.5-8.5V22.5c0-4.7,3.8-8.5,8.5-8.5h101.9c4.7,0,8.5,3.8,8.5,8.5v95.2C163.7,122.3,160,126.1,155.3,126.1z"
				/>
		</g>
		<g>
			<polygon class="st2" points="59.6,40.7 59.3,113.1 150.2,113.1 151.4,40.7 			"/>
			<path class="st1" d="M150.2,114.7H59.3c-0.4,0-0.9-0.2-1.2-0.5c-0.3-0.3-0.5-0.7-0.5-1.2l0.3-72.4c0-0.9,0.7-1.6,1.6-1.6h91.9
				c0.4,0,0.9,0.2,1.2,0.5c0.3,0.3,0.5,0.7,0.5,1.2l-1.3,72.4C151.8,114,151.1,114.7,150.2,114.7z M61,111.5h87.6l1.2-69.1H61.2
				L61,111.5z"/>
		</g>
		<g>
			<path class="st1" d="M59.3,65.1c-0.3,0-0.6-0.1-0.8-0.3c-0.5-0.4-0.6-1.2-0.2-1.7l10.1-12c0.4-0.5,1.2-0.6,1.7-0.2l14.5,11.5
				l10.2-5.6c0.3-0.2,0.7-0.2,1.1-0.1l9.8,4.1L139.2,44c0.6-0.3,1.4-0.1,1.7,0.5c0.3,0.6,0.1,1.4-0.6,1.7l-33.9,17.1
				c-0.3,0.2-0.7,0.2-1,0l-9.8-4l-10.4,5.7c-0.4,0.2-1,0.2-1.4-0.1L69.6,53.6l-9.3,11.1C60,64.9,59.7,65.1,59.3,65.1z"/>
		</g>
		<g>
			<path class="st1" d="M95.5,99c-0.4,0-0.8-0.2-1-0.5L83.6,84L59.9,97.6c-0.6,0.3-1.3,0.1-1.7-0.5c-0.3-0.6-0.1-1.3,0.5-1.7
				l24.6-14.2c0.5-0.3,1.2-0.2,1.6,0.3l10.2,13.6l9.7-25.6c0.1-0.4,0.4-0.6,0.8-0.7c0.4-0.1,0.8-0.1,1.1,0.2l10.1,6.9l23.5-13.2
				c0.6-0.3,1.3-0.1,1.7,0.5c0.3,0.6,0.1,1.3-0.5,1.7l-24.2,13.5c-0.4,0.2-0.9,0.2-1.3-0.1l-9.4-6.4l-10,26.2
				c-0.2,0.4-0.5,0.7-1,0.8C95.6,99,95.6,99,95.5,99z"/>
		</g>
	</g>
	<g id="doctor_1_">
		<path class="st9" d="M168.2,103.6c0.3,0,8.3,0.2,9.1-2.7c1-3.5,1.2-40.2-0.1-45.6c-1.2-5.4-23.3-11.4-23.3-11.4
			s-0.7,56.8-0.6,56.8C153.5,100.7,168.2,103.6,168.2,103.6z"/>
		<path class="st10" d="M180.7,90.2c-2.3,1.3-4.2,1.2-5.4,0.8c0.1,0.6,0.1,1.1,0.2,1.4c0.4,4.4,0,13.5-4.8,17.7
			c-1.1,1-3.4,2.3-5.4,3.2l0.5,7.8l10.9,10.1c0,0-19.4,15-22.1,15s-20.4-14.7-20.4-14.7l17.2-8.4c0,0-0.3-3.5-0.6-6.2
			c-3,0.4-5.4,0.3-7.8-0.1c-7.7-1.3-13.1-10.5-14.5-16.9c-1.5-6.3-7.4-34.5-7.4-34.5v-5.9l11.1-9.7c0,0,36.4,3.6,37.3,4.2
			c0.5,0.4,1.8,11.5,3.2,21.7c2.8-2.4,7.9-2.1,10.3,0.6C187.3,80.8,185,87.8,180.7,90.2z"/>
		<path class="st11" d="M165.3,113.1c0,0-3.7,1.8-8.7,2.5c-4.9,0.7-5.7,0.9-5.7,0.9l0.6,6.2l-7.9,3.4l2.3,3.3l8.8-3.9l-0.4-6.6
			c0,0,3.4-1.1,6.4-2.6C163.7,114.9,165.3,113.1,165.3,113.1z"/>
		<path class="st9" d="M138,57.8c2.2,0.1,10.2-6.7,17-5.9c6.8,0.8,14.3,7.9,15.8,19.7c0.3,2.4,0.2,3.3,0.3,4.4
			c0.1,1.2,1.8-1.2,4.5-2c2.8-0.8,2.4-14.6,1.5-20.4c-1.5-9.3-11.3-17.8-21-17.6c-9.7,0.3-21.3,0.9-29.8,8.2
			c-7.5,6.4-7.3,11.8-6.7,18.8c0.5,6.4,3.7,12.3,3.7,12.3s-0.9-13.4,2.2-16.4C128.6,56.1,135.1,57.7,138,57.8z"/>
		<path class="st11" d="M143.3,99.6c-1.9,0-5-0.4-5.5-3.1c-0.2-1.2,0.1-2.8,0.4-4.5c0.4-1.8,0.8-3.9,0.6-5.9
			c-0.4-3.6-4.4-7.3-4.4-7.3c-0.3-0.3-0.4-0.8,0-1.2c0.3-0.3,0.8-0.4,1.2,0c0.2,0.2,4.5,4.2,5,8.4c0.2,2.2-0.2,4.5-0.6,6.4
			c-0.3,1.5-0.6,3-0.4,3.9c0.3,1.8,3.9,1.8,5.1,1.6c0.4-0.1,0.9,0.3,0.9,0.7c0.1,0.5-0.3,0.9-0.7,0.9
			C144.7,99.5,144.1,99.6,143.3,99.6z"/>
		<path class="st11" d="M148.5,107.4c-0.5,0-0.8-0.4-0.8-0.8c0-0.5,0.4-0.8,0.8-0.8c0.1,0,3.6-0.1,5-3.7c0.2-0.4,0.6-0.6,1.1-0.5
			c0.4,0.2,0.6,0.7,0.5,1.1C153.2,107.4,148.7,107.4,148.5,107.4z"/>
		<path class="st11" d="M174.1,86.2c-0.1,0-0.1,0-0.2,0c-0.4-0.1-0.7-0.6-0.6-1c0-0.1,0.9-3.3,4.7-3.8c0.5-0.1,0.9,0.2,0.9,0.7
			c0.1,0.5-0.2,0.9-0.7,0.9c-2.7,0.4-3.3,2.5-3.3,2.6C174.8,85.9,174.5,86.2,174.1,86.2z"/>
		<path class="st9" d="M148.9,77.4c0,0-1-2.2-0.7-3.3c0.3-1.1,3.4-1.8,6.7-1.4c3.4,0.4,5.5,2.3,5.5,2.3s-4.7,0-7.2,0.5
			C150.9,76,148.9,77.4,148.9,77.4z"/>
		<path class="st9" d="M124.8,82.2c0,0,0.5-2.4,1.8-3.9c1.3-1.5,5.3-2.6,6.7-2.4c1.4,0.2,3.4,2.7,3.4,2.7s-3.6,0.1-5.8,0.6
			C128.6,79.8,124.8,82.2,124.8,82.2z"/>
		<path class="st9" d="M156.7,85c0.3,1.7-0.2,3.3-1.2,3.5c-1,0.2-2.1-1-2.5-2.7c-0.3-1.7,0.2-3.3,1.2-3.5
			C155.3,82.1,156.4,83.3,156.7,85z"/>
		<path class="st9" d="M135.4,88.5c0.3,1.7-0.2,3.3-1.2,3.5c-1,0.2-2.1-1-2.5-2.7c-0.3-1.7,0.2-3.3,1.2-3.5
			C133.9,85.6,135,86.8,135.4,88.5z"/>
		<g>
			<defs>
				<path id="SVGID_1_" d="M204.5,257.7l-21.4-3.3c-11.5,6.5-24.8,10.1-38.9,10.1c-44.1,0-79.9-35.7-79.9-79.9s35.7-79.9,79.9-79.9
					c44.1,0,78.6,35.7,79.1,79.9c0.3,23.6-8.5,44-25.8,59.4c0,2.1,0.2,4.8,1.1,6.8C200.5,254.9,204.5,257.7,204.5,257.7z"/>
			</defs>
			<clipPath id="SVGID_2_">
				<use xlink:href="#SVGID_1_"  style="overflow:visible;"/>
			</clipPath>
			<path class="st12" d="M130.7,129.5l20.8-6.8c0,0-2.6,3.5-1.1,7.2c1.4,3.5,10.3,3.9,13.4-2.3c2.1-4.2,2-6.8,2-6.8l21.3,10.5
				l-12.8,127.1l-31.2,12l-21.9-4.2L130.7,129.5z"/>
			<path class="st13" d="M216.3,227.6l-2.9,29.6c0,0-63.8,46.9-65.2,11.4c-0.5-13.7-0.4-25.8,0.1-36.4c1.9-37.7,9.3-57.6,13.1-70.9
				c4.7-16.5,16-33.2,16.7-34.3l0-0.1c0,0,2.5,1.1,5.9,2.6c5.2,2.3,12.5,5.8,16.7,8.6c6.9,4.6,11.9,10.9,12.9,16.2
				C216.5,168.2,216.3,227.6,216.3,227.6z"/>
			<path class="st14" d="M183.2,150.8l-12.5,8.2l5.9,12.3c0,0-9.9,15-15.4,24.2c-5.5,9.1-12.9,36.7-12.9,36.7
				c1.9-37.7,9.3-57.6,13.1-70.9c4.7-16.5,16-33.2,16.7-34.3l0-0.1c0,0,0.2-0.7,0.8-0.7c0.6,0,4.7,1.6,5.1,2.3c0,0.1,0.1,0.4,0.1,1
				C184.1,133.9,183.2,150.8,183.2,150.8z"/>
			<path class="st13" d="M140.7,126.3c0,0-4,24.5-4.8,39.2c-0.5,8.3-0.8,39.1-1.1,64.2v0.1c-0.1,19.3-0.2,35.3-0.2,35.3l-32.6-6.6
				l-0.4-26.1l-17.1-4.2l-32-52.6L84.8,159l18.1,27.8c0,0,1-26.2,3.2-36c2-9.1,7.4-14.2,13.3-17.1c3.6-1.7,10.5-4.1,15.5-5.6
				C138.2,127,140.7,126.3,140.7,126.3z"/>
			<path class="st14" d="M140.7,126.3c0,0-4,24.5-4.8,39.2c-0.5,8.3-0.8,39.1-1.1,64.2c-0.4-2.5-4-22.6-5.4-30.9
				c-1.5-8.8-6.9-32.2-6.9-32.2l7.8-11.2l-6.7-9.5c0,0,8.5-13.9,11-17.8c0.4-0.6,0.7-1,0.7-1.1c0.5-0.5,4.5-1.7,5.2-1.6
				C141.4,125.6,140.7,126.3,140.7,126.3z"/>
		</g>
		<g>
			<path class="st15" d="M183.3,200.2c-0.9,0-1.6-0.7-1.6-1.6v-12.3c0-0.9,0.7-1.6,1.6-1.6c0.9,0,1.6,0.7,1.6,1.6v12.3
				C184.9,199.5,184.2,200.2,183.3,200.2z"/>
		</g>
		<g>
			<path class="st16" d="M191.8,207.4c-1.8,0-3.3-1.5-3.3-3.3v-16.5c0-1.8,1.5-3.3,3.3-3.3c1.8,0,3.3,1.5,3.3,3.3v16.5
				C195.1,206,193.6,207.4,191.8,207.4z"/>
		</g>
		<path class="st8" d="M177.8,193.7h21.3c0,0,2.4,32-10.7,32C175.4,225.7,177.8,193.7,177.8,193.7z"/>
		<g>
			<path class="st16" d="M191.8,205.8c-0.9,0-1.6-0.7-1.6-1.6v-22.7c0-0.9,0.7-1.6,1.6-1.6c0.9,0,1.6,0.7,1.6,1.6v22.7
				C193.5,205,192.7,205.8,191.8,205.8z"/>
		</g>
		<path class="st10" d="M80.4,163.9c0,0-2.7-5.9-4.7-8.9c-2.5-3.7-16.9-5.4-18.8-6.2c-3.5-1.4-5.3-1.3-4.5,0.7
			c1.4,3.2,6.9,3.8,7.8,5c0.9,1.2-6,1-8.6,0.9c-2.6-0.1-8.7-3.3-11.4-2.9c-2.7,0.5-1.6,2.1-1.6,2.1s-2.7-0.9-3.5-0.2s0,1.7,0,1.7
			s-2.2-0.5-3.1,0.5c-0.9,0.9,0.7,2.1,0.7,2.1s-1.3,1.1-1,2.3c0.3,1.2,6.2,7.2,12.9,8.1c6.8,0.9,24,2.6,24,2.6L80.4,163.9z"/>
		<polygon class="st7" points="84.8,159 51.7,176.3 67.1,199.5 96.8,177.5 		"/>
	</g>
	<g id="window_3_4_">
		<path class="st7" d="M152.3,209.5H84.1l0-7.9c0,0-1.5,3.5-4.3,5.5c-2.9,2.1-8.1,2.3-8.1,2.3H31c-4,0-7.2,3.2-7.2,7.2v15.1
			c0,4,3.2,7.2,7.2,7.2h121.3c4,0,7.2-3.2,7.2-7.2v-15.1C159.5,212.7,156.3,209.5,152.3,209.5z"/>
		<path class="st8" d="M42.2,224.8c0,1.8-1.4,3.2-3.2,3.2c-1.8,0-3.2-1.4-3.2-3.2c0-1.8,1.4-3.2,3.2-3.2
			C40.8,221.6,42.2,223,42.2,224.8z"/>
		<path class="st8" d="M63.3,224.8c0,1.8-1.4,3.2-3.2,3.2c-1.8,0-3.2-1.4-3.2-3.2c0-1.8,1.4-3.2,3.2-3.2
			C61.8,221.6,63.3,223,63.3,224.8z"/>
		<path class="st8" d="M84.3,224.8c0,1.8-1.4,3.2-3.2,3.2c-1.8,0-3.2-1.4-3.2-3.2c0-1.8,1.4-3.2,3.2-3.2
			C82.9,221.6,84.3,223,84.3,224.8z"/>
		<path class="st8" d="M105.4,224.8c0,1.8-1.4,3.2-3.2,3.2c-1.8,0-3.2-1.4-3.2-3.2c0-1.8,1.4-3.2,3.2-3.2
			C103.9,221.6,105.4,223,105.4,224.8z"/>
		<path class="st8" d="M126.4,224.8c0,1.8-1.4,3.2-3.2,3.2c-1.8,0-3.2-1.4-3.2-3.2c0-1.8,1.4-3.2,3.2-3.2
			C125,221.6,126.4,223,126.4,224.8z"/>
		<path class="st8" d="M147.5,224.8c0,1.8-1.4,3.2-3.2,3.2c-1.8,0-3.2-1.4-3.2-3.2c0-1.8,1.4-3.2,3.2-3.2
			C146,221.6,147.5,223,147.5,224.8z"/>
		<g>
			<path class="st8" d="M31,240.2c-4.7,0-8.5-3.8-8.5-8.5v-15.1c0-4.7,3.8-8.5,8.5-8.5h40.7c0,0,4.8-0.3,7.3-2.1
				c2.5-1.8,3.9-5,3.9-5c0.2-0.5,0.8-0.8,1.4-0.7c0.6,0.1,1,0.6,1,1.2l0,6.6h19.1c0.7,0,1.2,0.6,1.2,1.2c0,0.7-0.6,1.2-1.2,1.2H84.1
				c-0.7,0-1.2-0.6-1.2-1.2l0-3.6c-0.7,0.8-1.5,1.6-2.4,2.3c-3.1,2.2-8.5,2.5-8.7,2.5l-40.7,0c-3.3,0-6,2.7-6,6v15.1
				c0,3.3,2.7,6,6,6c0.7,0,1.2,0.6,1.2,1.2S31.7,240.2,31,240.2z"/>
		</g>
		<g>
			<path class="st8" d="M118.1,210.7h-5.5c-0.7,0-1.2-0.6-1.2-1.2c0-0.7,0.6-1.2,1.2-1.2h5.5c0.7,0,1.2,0.6,1.2,1.2
				C119.3,210.2,118.7,210.7,118.1,210.7z"/>
		</g>
		<g>
			<path class="st8" d="M152.3,240.2H95.2c-0.7,0-1.2-0.6-1.2-1.2s0.6-1.2,1.2-1.2h57.1c3.3,0,6-2.7,6-6v-15.1c0-3.3-2.7-6-6-6
				h-27.1c-0.7,0-1.2-0.6-1.2-1.2c0-0.7,0.6-1.2,1.2-1.2h27.1c4.7,0,8.5,3.8,8.5,8.5v15.1C160.7,236.5,156.9,240.2,152.3,240.2z"/>
		</g>
	</g>
	<g id="window_2_3_">
		<path class="st7" d="M266.5,25h-64.9c-4,0-7.2,3.2-7.2,7.2V105c0,4,3.2,7.2,7.2,7.2h7.8l0,8c0,0,1.5-3.5,4.3-5.5
			c2.9-2.1,8.1-2.3,8.1-2.3v-0.1h44.7c4,0,7.2-3.2,7.2-7.2V32.2C273.8,28.2,270.5,25,266.5,25z"/>
		
			<ellipse transform="matrix(0.2298 -0.9732 0.9732 0.2298 129.3501 268.1837)" class="st6" cx="234.1" cy="52.4" rx="15.9" ry="15.9"/>
		<path class="st7" d="M243.8,65c-2.7,2.1-6.1,3.3-9.7,3.3c-3.6,0-7-1.2-9.6-3.2c1.7-3.3,4.6-5.6,7.9-6.3v-2.5
			c-2.7-0.8-4.7-3.5-4.7-6.7c0-3.8,2.9-6.9,6.5-6.9c3.6,0,6.5,3.1,6.5,6.9c0,3.1-1.9,5.8-4.6,6.7v2.5
			C239.2,59.4,242.1,61.7,243.8,65z"/>
		<g>
			<path class="st5" d="M234.1,69.5c-3.8,0-7.3-1.2-10.4-3.5c-4.3-3.3-6.8-8.3-6.8-13.7c0-9.5,7.7-17.2,17.2-17.2
				c9.5,0,17.2,7.7,17.2,17.2c0,5.4-2.4,10.3-6.7,13.6C241.5,68.3,237.9,69.5,234.1,69.5z M234.1,37.7c-8.1,0-14.7,6.6-14.7,14.7
				c0,4.6,2.1,8.9,5.8,11.7C230.4,68,237.9,68,243,64c3.7-2.8,5.7-7,5.7-11.7C248.8,44.3,242.2,37.7,234.1,37.7z"/>
		</g>
		<g>
			<rect x="205.4" y="89.2" class="st8" width="58.8" height="2.5"/>
		</g>
		<g>
			<rect x="205.4" y="98.4" class="st8" width="58.8" height="2.5"/>
		</g>
		<rect x="205.4" y="76.7" class="st8" width="58.8" height="6.5"/>
		<g>
			<path class="st8" d="M273.8,83.5c-0.7,0-1.2-0.6-1.2-1.2v-8.5c0-0.7,0.6-1.2,1.2-1.2c0.7,0,1.2,0.6,1.2,1.2v8.5
				C275,82.9,274.4,83.5,273.8,83.5z"/>
		</g>
		<g>
			<path class="st8" d="M209.4,121.4c-0.1,0-0.2,0-0.2,0c-0.6-0.1-1-0.6-1-1.2l0-6.8h-6.5c-4.7,0-8.5-3.8-8.5-8.5v-2.6
				c0-0.7,0.6-1.2,1.2-1.2c0.7,0,1.2,0.6,1.2,1.2v2.6c0,3.3,2.7,6,6,6h7.8c0.7,0,1.2,0.6,1.2,1.2l0,3.7c0.7-0.8,1.5-1.6,2.4-2.3
				c2.6-1.9,6.7-2.4,8.2-2.5c0.2-0.1,0.4-0.2,0.6-0.2h44.7c3.3,0,6-2.7,6-6V94.4c0-0.7,0.6-1.2,1.2-1.2c0.7,0,1.2,0.6,1.2,1.2V105
				c0,4.7-3.8,8.5-8.5,8.5h-44.2c-0.1,0.1-0.3,0.1-0.5,0.1c0,0-4.9,0.3-7.4,2.1c-2.5,1.8-3.9,5-3.9,5
				C210.4,121.1,209.9,121.4,209.4,121.4z"/>
		</g>
		<g>
			<path class="st8" d="M194.4,69.5c-0.7,0-1.2-0.6-1.2-1.2V32.2c0-4.7,3.8-8.5,8.5-8.5h64.9c4.7,0,8.5,3.8,8.5,8.5v5.2
				c0,0.7-0.6,1.2-1.2,1.2c-0.7,0-1.2-0.6-1.2-1.2v-5.2c0-3.3-2.7-6-6-6h-64.9c-3.3,0-6,2.7-6,6v36.1
				C195.6,69,195.1,69.5,194.4,69.5z"/>
		</g>
	</g>
	<g id="window_1_3_">
		<path class="st7" d="M29.1,135.5h41.4c2.7,0,4.8-2.2,4.8-4.8V68.7c0-2.7-2.2-4.8-4.8-4.8H29.1c-2.7,0-4.8,2.2-4.8,4.8v61.9
			C24.3,133.3,26.5,135.5,29.1,135.5z"/>
		<g>
			<rect x="34" y="72.8" class="st8" width="31.7" height="2.5"/>
		</g>
		<g>
			<path class="st2" d="M62.8,95.2v28.1c0,1.1-0.9,2-2,2h-22c-1.1,0-2-0.9-2-2V95.2c0-1.1,0.9-2,2-2h6.9h8.9h6.3
				C61.9,93.3,62.8,94.1,62.8,95.2z"/>
			<path class="st1" d="M60.8,126.6h-22c-1.8,0-3.2-1.4-3.2-3.2V95.2c0-1.8,1.4-3.2,3.2-3.2h22c1.8,0,3.2,1.4,3.2,3.2v28.1
				C64.1,125.1,62.6,126.6,60.8,126.6z M38.8,94.5c-0.4,0-0.7,0.3-0.7,0.8v28.1c0,0.4,0.3,0.7,0.7,0.7h22c0.4,0,0.8-0.3,0.8-0.7
				V95.2c0-0.4-0.3-0.8-0.8-0.8H38.8z"/>
		</g>
		<g>
			<path class="st3" d="M56.5,93.3H43.2c-0.7,0-1.3-0.6-1.3-1.3v-7.6c0-0.7,0.6-1.3,1.3-1.3h13.3c0.7,0,1.3,0.6,1.3,1.3v7.6
				C57.8,92.7,57.2,93.3,56.5,93.3z"/>
			<path class="st1" d="M55.8,94.5h-12c-1.8,0-3.2-1.4-3.2-3.2V85c0-1.8,1.4-3.2,3.2-3.2h12c1.8,0,3.2,1.4,3.2,3.2v6.3
				C59,93.1,57.6,94.5,55.8,94.5z M43.8,84.3c-0.4,0-0.8,0.3-0.8,0.8v6.3c0,0.4,0.3,0.8,0.8,0.8h12c0.4,0,0.8-0.3,0.8-0.8V85
				c0-0.4-0.3-0.8-0.8-0.8H43.8z"/>
		</g>
		<g>
			<path class="st7" d="M43.2,117c-0.7,0-1.2-0.6-1.2-1.2V100c0-0.7,0.6-1.2,1.2-1.2c0.7,0,1.2,0.6,1.2,1.2v15.8
				C44.4,116.5,43.9,117,43.2,117z"/>
		</g>
		<g>
			<path class="st8" d="M68.2,137.1H31.5c-4.7,0-8.5-3.8-8.5-8.5v-3.7c0-0.7,0.6-1.2,1.2-1.2c0.7,0,1.2,0.6,1.2,1.2v3.7
				c0,3.3,2.7,6,6,6h36.7c3.3,0,6-2.7,6-6v-14.8c0-0.7,0.6-1.2,1.2-1.2c0.7,0,1.2,0.6,1.2,1.2v14.8
				C76.6,133.3,72.8,137.1,68.2,137.1z"/>
		</g>
		<g>
			<path class="st8" d="M24.3,117.8c-0.7,0-1.2-0.6-1.2-1.2v-7.3c0-0.7,0.6-1.2,1.2-1.2c0.7,0,1.2,0.6,1.2,1.2v7.3
				C25.5,117.3,25,117.8,24.3,117.8z"/>
		</g>
		<g>
			<path class="st8" d="M24.3,95.3c-0.7,0-1.2-0.6-1.2-1.2V71.4c0-4.7,3.8-8.5,8.5-8.5h36.7c4.7,0,8.5,3.8,8.5,8.5v21.3
				c0,0.7-0.6,1.2-1.2,1.2c-0.7,0-1.2-0.6-1.2-1.2V71.4c0-3.3-2.7-6-6-6H31.5c-3.3,0-6,2.7-6,6V94C25.5,94.7,25,95.3,24.3,95.3z"/>
		</g>
	</g>
</g>
</svg>
