<?xml version="1.0" encoding="utf-8"?>
<!-- Generator: Adobe Illustrator 22.1.0, SVG Export Plug-In . SVG Version: 6.00 Build 0)  -->
<svg version="1.1" id="Layer_1" xmlns="http://www.w3.org/2000/svg" xmlns:xlink="http://www.w3.org/1999/xlink" x="0px" y="0px"
	 viewBox="0 0 163 100" style="enable-background:new 0 0 163 100;" xml:space="preserve">
<style type="text/css">
	.st0{fill:#023E8A;}
	.st1{fill:#65C7C6;}
	.st2{fill:#FFFFFF;}
</style>
<g>
	<path class="st0" d="M109.9,42.1v-5.1c0-0.5,0.3-1.1,0.9-1.2c0.9-0.3,1.7,0.4,1.7,1.2v5.1c0,0.8-0.8,1.5-1.7,1.2
		C110.3,43.2,109.9,42.7,109.9,42.1z"/>
	<path class="st0" d="M113.7,40.8h-5.1c-0.5,0-1.1-0.3-1.2-0.9c-0.3-0.9,0.4-1.7,1.2-1.7l5.1,0c0.5,0,1.1,0.3,1.2,0.9
		C115.2,40,114.5,40.8,113.7,40.8z"/>
	<path class="st0" d="M42.4,69.8H31.9V67h3.2V56.8c0-2.4-0.5-4-1.4-5c-0.9-1-2.1-1.5-3.6-1.5c-2,0-3.5,0.8-4.6,2.3
		c-1.1,1.5-1.6,3-1.7,4.3V67h3.8v2.8H17.2V67h3.2V56.8c0-2.4-0.5-4.1-1.4-5c-0.9-1-2.1-1.4-3.5-1.4c-2,0-3.6,0.7-4.7,2.2
		c-1.1,1.5-1.6,2.9-1.7,4.3V67h4v2.8H1.8V67h3.8V50.6H1.7v-2.8h7.3v4.1c0.7-1.3,1.7-2.4,2.9-3.3c1.2-0.9,2.7-1.3,4.4-1.3
		c1.7,0,3.2,0.4,4.5,1.3c1.3,0.9,2.1,2.2,2.6,4c0.7-1.5,1.6-2.8,2.9-3.8c1.3-1,2.9-1.5,4.8-1.5c2.1,0,3.9,0.7,5.2,2
		c1.4,1.3,2.1,3.4,2.1,6.4V67h3.8V69.8z"/>
	<path class="st0" d="M62.6,63.5c-0.3,1.9-1.2,3.5-2.8,4.8c-1.6,1.3-3.7,2-6.4,2c-3.1,0-5.6-1-7.5-2.9c-1.9-1.9-2.9-4.7-2.9-8.2
		c0-3.4,0.9-6.2,2.7-8.4c1.8-2.2,4.3-3.3,7.3-3.3c3,0,5.3,1,6.9,2.9c1.6,1.9,2.4,4.2,2.4,6.8c0,0.9-0.1,1.7-0.3,2.6H46.6
		c0.2,5.1,2.5,7.7,6.9,7.7c1.7,0,3.1-0.4,4.1-1.2c1-0.8,1.6-1.9,2-3.3L62.6,63.5z M58.7,57.1c0.2-1.6-0.2-3.2-1.2-4.6
		c-0.9-1.4-2.5-2.2-4.6-2.2c-2,0-3.5,0.7-4.5,2c-1,1.3-1.5,2.9-1.8,4.8H58.7z"/>
	<path class="st0" d="M89.6,69.8h-7.2v-4.4c-0.7,1.3-1.7,2.5-3,3.4c-1.2,1-2.9,1.5-4.9,1.5c-2.8,0-5.1-1-6.8-2.9
		c-1.7-1.9-2.6-4.6-2.6-8c0-2.9,0.8-5.7,2.3-8.2c1.5-2.5,4.1-3.8,7.6-3.8c3.4,0,5.9,1.3,7.3,4V38.7h-5.3v-2.8h8.8V67h3.8V69.8z
		 M82.4,60.1v-3.5c-0.1-1.8-0.7-3.3-2-4.5c-1.3-1.1-2.8-1.7-4.5-1.7c-2.4,0-4.2,0.9-5.3,2.7c-1.1,1.8-1.7,3.8-1.7,6.1
		c0,2.7,0.6,4.7,1.9,6.1c1.3,1.4,2.8,2.1,4.8,2.1c2,0,3.6-0.8,4.9-2.4C81.6,63.3,82.3,61.7,82.4,60.1z"/>
	<path class="st0" d="M100.6,69.8H89.5V67h3.8V38.7h-3.9v-2.8h7.3V67h3.8V69.8z"/>
	<polygon class="st0" points="111.4,69.8 100.3,69.8 100.3,67 104.1,67 104.1,50.6 100.2,50.6 100.2,47.8 107.6,47.8 107.6,67 
		111.4,67 	"/>
	<path class="st0" d="M137.4,69.8h-11.1V67h3.8V56.8c0-2.4-0.5-4-1.4-5c-1-1-2.2-1.5-3.6-1.5c-2,0-3.6,0.6-4.8,1.9
		c-1.2,1.3-1.8,2.8-1.9,4.5V67h3.8v2.8h-11.1V67h3.8V50.6H111v-2.8h7.4v3.9c1.6-2.9,4.1-4.3,7.7-4.3c2.1,0,3.9,0.7,5.4,2
		c1.4,1.3,2.2,3.4,2.2,6.4V67h3.8V69.8z"/>
	<path class="st0" d="M161.3,69.8h-10.3V67h3.3l-6-7.4h-3.9V67h3.2v2.8H137V67h3.8V38.7h-3.9v-2.8h7.4v21h3.9l5-6.2h-3.4v-2.8h10.3
		v2.8h-3.4l-5.9,7.2l7.2,9.1h3.1V69.8z"/>
	<g>
		<g>
			<path class="st1" d="M42.4,29.7V43h12c3.4,0,6.3-2.5,6.7-5.9c0.4-4-2.7-7.4-6.6-7.4H42.4z"/>
			<path class="st0" d="M42.4,29.7V43h-12c-3.4,0-6.3-2.5-6.7-5.9c-0.4-4,2.7-7.4,6.6-7.4H42.4z"/>
		</g>
		<path class="st2" d="M53.5,40.3c0,0.4,0.3,0.8,0.8,0.8c2.1,0,3.8-1.6,3.9-3.7c0-0.4-0.3-0.8-0.7-0.8c-0.4,0-0.8,0.3-0.8,0.7
			c-0.1,1.3-1.1,2.2-2.3,2.2C53.9,39.5,53.5,39.9,53.5,40.3z"/>
	</g>
</g>
</svg>
