<?xml version="1.0" encoding="utf-8"?>
<!-- Generator: Adobe Illustrator 22.1.0, SVG Export Plug-In . SVG Version: 6.00 Build 0)  -->
<svg version="1.1" id="Layer_1" xmlns="http://www.w3.org/2000/svg" xmlns:xlink="http://www.w3.org/1999/xlink" x="0px" y="0px"
	 viewBox="0 0 326 200" style="enable-background:new 0 0 326 200;" xml:space="preserve">
<style type="text/css">
	.st0{fill:#023E8A;}
	.st1{fill:#65C7C6;}
	.st2{fill:#FFFFFF;}
</style>
<g>
	<path class="st0" d="M219.8,84.3V74.2c0-1.1,0.7-2.1,1.7-2.4c1.7-0.5,3.3,0.7,3.3,2.4v10.1c0,1.7-1.6,2.9-3.3,2.4
		C220.4,86.4,219.8,85.4,219.8,84.3z"/>
	<path class="st0" d="M227.3,81.7h-10.1c-1.1,0-2.1-0.7-2.4-1.7c-0.5-1.7,0.7-3.3,2.4-3.3h10.1c1.1,0,2.1,0.7,2.4,1.7
		C230.2,80.1,228.9,81.7,227.3,81.7z"/>
	<path class="st0" d="M84.9,139.5H64v-5.6h6.4v-20.4c0-4.7-0.9-8-2.8-10c-1.9-1.9-4.2-2.9-7.1-2.9c-4,0-7.1,1.5-9.2,4.5
		c-2.2,3-3.3,5.9-3.3,8.7v20.1h7.6v5.6H34.6v-5.6h6.3v-20.4c0-4.8-0.9-8.1-2.8-10c-1.8-1.9-4.2-2.9-7-2.9c-4.1,0-7.2,1.5-9.3,4.4
		c-2.1,2.9-3.3,5.8-3.4,8.6v20.3h8.1v5.6H3.9v-5.6h7.7v-32.6H3.8v-5.6h14.7v8.2c1.4-2.6,3.4-4.8,5.8-6.5c2.4-1.7,5.4-2.6,8.9-2.6
		c3.4,0,6.4,0.9,8.9,2.6c2.5,1.7,4.2,4.4,5.2,8c1.3-3.1,3.3-5.6,5.9-7.6c2.6-2,5.8-3,9.6-3c4.2,0,7.7,1.3,10.5,3.9
		c2.8,2.6,4.2,6.9,4.2,12.7v22.4h7.7V139.5z"/>
	<path class="st0" d="M125.2,126.9c-0.6,3.7-2.5,6.9-5.6,9.6s-7.4,4-12.8,4c-6.2,0-11.1-1.9-15-5.8c-3.8-3.9-5.7-9.3-5.7-16.4
		c0-6.8,1.8-12.4,5.4-16.8c3.6-4.4,8.5-6.6,14.7-6.6c6,0,10.6,1.9,13.8,5.7c3.1,3.8,4.8,8.3,4.8,13.5c0,1.7-0.2,3.4-0.6,5.2H93.4
		c0.4,10.2,5,15.3,13.9,15.3c3.5,0,6.2-0.8,8.2-2.5c2-1.6,3.3-3.8,3.9-6.5L125.2,126.9z M117.5,114.1c0.3-3.3-0.4-6.4-2.3-9.2
		c-1.9-2.9-4.9-4.3-9.2-4.3c-4.1,0-7,1.3-9,4c-1.9,2.7-3.1,5.9-3.5,9.5H117.5z"/>
	<path class="st0" d="M179.2,139.5h-14.5v-8.9c-1.4,2.6-3.4,4.9-5.9,6.9c-2.5,2-5.7,3-9.7,3c-5.6,0-10.2-1.9-13.6-5.8
		c-3.4-3.8-5.2-9.2-5.2-16c0-5.8,1.5-11.3,4.5-16.3c3-5,8.1-7.6,15.2-7.6c6.8,0,11.7,2.7,14.7,8V77.4h-10.6v-5.6h17.5v62.1h7.6
		V139.5z M164.7,120.1v-7c-0.1-3.7-1.5-6.7-4-9c-2.6-2.3-5.6-3.4-9-3.4c-4.9,0-8.4,1.8-10.7,5.3c-2.3,3.5-3.4,7.6-3.4,12.2
		c0,5.4,1.3,9.4,3.8,12.2c2.5,2.8,5.7,4.1,9.5,4.1c3.9,0,7.2-1.6,9.8-4.8C163.3,126.6,164.6,123.4,164.7,120.1z"/>
	<path class="st0" d="M201.2,139.5H179v-5.6h7.7V77.4h-7.8v-5.6h14.7v62.1h7.7V139.5z"/>
	<polygon class="st0" points="222.7,139.5 200.5,139.5 200.5,133.8 208.2,133.8 208.2,101.3 200.3,101.3 200.3,95.7 215.1,95.7 
		215.1,133.8 222.7,133.8 	"/>
	<path class="st0" d="M274.5,139.5h-22.1v-5.6h7.6v-20.4c0-4.7-1-8-2.9-10c-1.9-1.9-4.3-2.9-7.3-2.9c-3.9,0-7.1,1.3-9.5,3.9
		c-2.4,2.6-3.7,5.6-3.8,8.9v20.5h7.7v5.6H222v-5.6h7.7v-32.6h-7.9v-5.6h14.8v7.8c3.1-5.8,8.3-8.7,15.3-8.7c4.3,0,7.8,1.3,10.7,3.9
		c2.9,2.6,4.3,6.9,4.3,12.7v22.4h7.6V139.5z"/>
	<path class="st0" d="M322.2,139.5h-20.7v-5.6h6.6l-12-14.9h-7.8v14.9h6.3v5.6h-20.9v-5.6h7.6V77.4h-7.8v-5.6h14.8v41.9h7.9l10-12.4
		h-6.8v-5.6h20.5v5.6h-6.7l-11.7,14.5l14.5,18.1h6.2V139.5z"/>
	<g>
		<g>
			<path class="st1" d="M84.9,59.6v26.5h24c6.8,0,12.6-5,13.3-11.8c0.9-8-5.4-14.8-13.2-14.8H84.9z"/>
			<path class="st0" d="M84.9,59.6v26.5H61c-6.8,0-12.6-5-13.3-11.8c-0.9-8,5.4-14.8,13.2-14.8H84.9z"/>
		</g>
		<path class="st2" d="M107.2,80.7c0,0.9,0.7,1.6,1.6,1.6c4.2,0,7.6-3.3,7.8-7.5c0-0.9-0.6-1.6-1.5-1.6c-0.9,0-1.6,0.6-1.6,1.5
			c-0.1,2.5-2.2,4.5-4.7,4.5C107.9,79.1,107.2,79.8,107.2,80.7z"/>
	</g>
</g>
</svg>
