<svg height="395pt" viewBox="-6 0 395 395.94667" width="395pt" xmlns="http://www.w3.org/2000/svg"><g fill="#0e65e5"><path d="m137.007812 225.28125h-116.054687v-105.816406c0-32.046875 25.980469-58.023438 58.027344-58.023438s58.027343 25.976563 58.027343 58.023438zm0 0"/><path d="m137.007812 232.105469h-116.054687c-3.769531 0-6.828125-3.050781-6.828125-6.824219v-105.816406c0-35.757813 29.09375-64.851563 64.855469-64.851563 35.757812 0 64.851562 29.09375 64.851562 64.851563v105.816406c0 3.773438-3.054687 6.824219-6.824219 6.824219zm-109.226562-13.652344h102.398438v-98.988281c0-28.230469-22.964844-51.199219-51.199219-51.199219s-51.199219 22.96875-51.199219 51.199219zm0 0"/><path d="m137.007812 225.28125h-116.054687v105.8125c0 32.046875 25.980469 58.027344 58.027344 58.027344s58.027343-25.980469 58.027343-58.027344zm0 0"/><path d="m78.980469 395.945312c-35.761719 0-64.855469-29.09375-64.855469-64.851562v-112.640625h129.707031v112.640625c0 35.757812-29.09375 64.851562-64.851562 64.851562zm-51.199219-163.839843v98.988281c0 28.234375 22.964844 51.199219 51.199219 51.199219s51.199219-22.964844 51.199219-51.199219v-98.988281zm0 0"/></g><path d="m123.351562 225.28125h-116.050781v-105.816406c0-32.046875 25.976563-58.023438 58.027344-58.023438 32.046875 0 58.023437 25.976563 58.023437 58.023438zm0 0" fill="#2a8ee6"/><path d="m123.351562 232.105469h-116.050781c-3.769531 0-6.828125-3.050781-6.828125-6.824219v-105.816406c0-35.757813 29.09375-64.851563 64.855469-64.851563 35.757813 0 64.851563 29.09375 64.851563 64.851563v105.816406c0 3.773438-3.054688 6.824219-6.828126 6.824219zm-109.226562-13.652344h102.402344v-98.988281c0-28.230469-22.96875-51.199219-51.199219-51.199219-28.234375 0-51.203125 22.96875-51.203125 51.199219zm0 0" fill="#0e65e5"/><path d="m123.351562 225.28125h-116.050781v105.8125c0 32.046875 25.976563 58.027344 58.027344 58.027344 32.046875 0 58.023437-25.980469 58.023437-58.027344zm0 0" fill="#fff"/><path d="m65.328125 395.945312c-35.761719 0-64.855469-29.09375-64.855469-64.851562v-112.640625h129.707032v112.640625c0 35.757812-29.09375 64.851562-64.851563 64.851562zm-51.203125-163.839843v98.988281c0 28.234375 22.96875 51.199219 51.203125 51.199219 28.230469 0 51.199219-22.964844 51.199219-51.199219v-98.988281zm0 0" fill="#0e65e5"/><path d="m122.867188 272.582031c-26.660157 26.660157-26.660157 69.882813 0 96.542969 26.660156 26.660156 69.886718 26.660156 96.546874 0zm0 0" fill="#2a8ee6"/><path d="m171.140625 395.914062c-19.230469 0-38.460937-7.320312-53.101563-21.960937-29.273437-29.28125-29.273437-76.917969 0-106.199219 2.5625-2.5625 7.09375-2.5625 9.65625 0l96.542969 96.542969c2.667969 2.667969 2.667969 6.988281 0 9.652344-14.636719 14.644531-33.867187 21.964843-53.097656 21.964843zm-48.007813-113.414062c-19.28125 24.097656-17.757812 59.472656 4.5625 81.800781 22.328126 22.320313 57.691407 23.847657 81.796876 4.558594zm0 0" fill="#0e65e5"/><path d="m122.867188 272.582031c26.660156-26.660156 69.886718-26.660156 96.546874 0 26.660157 26.660157 26.660157 69.882813 0 96.542969zm0 0" fill="#fff"/><path d="m219.414062 378.78125-106.203124-106.203125 4.828124-4.824219c29.277344-29.28125 76.917969-29.28125 106.199219 0 29.277344 29.277344 29.277344 76.917969 0 106.199219zm-86.628906-105.933594 86.363282 86.359375c19.277343-24.101562 17.757812-59.472656-4.5625-81.800781-22.324219-22.320312-57.691407-23.847656-81.800782-4.558594zm0 0" fill="#0e65e5"/><path d="m34.605469 122.878906c-3.769531 0-6.824219-3.050781-6.824219-6.824218 0-18.363282 14.355469-33.335938 32.683594-34.101563 3.847656-.191406 6.949218 2.773437 7.105468 6.535156.15625 3.765625-2.769531 6.953125-6.539062 7.105469-10.988281.460938-19.597656 9.445312-19.597656 20.460938 0 3.773437-3.058594 6.824218-6.828125 6.824218zm0 0" fill="#fff"/><path d="m375.941406 75.09375c0 37.703125-30.566406 68.265625-68.269531 68.265625s-68.265625-30.5625-68.265625-68.265625 30.5625-68.265625 68.265625-68.265625 68.269531 30.5625 68.269531 68.265625zm0 0" fill="#d7e9ff"/><path d="m307.671875 150.1875c-41.40625 0-75.09375-33.6875-75.09375-75.09375s33.6875-75.09375 75.09375-75.09375c41.410156 0 75.09375 33.6875 75.09375 75.09375s-33.683594 75.09375-75.09375 75.09375zm0-136.535156c-33.875 0-61.4375 27.558594-61.4375 61.441406 0 33.878906 27.5625 61.441406 61.4375 61.441406 33.878906 0 61.441406-27.5625 61.441406-61.441406 0-33.882812-27.5625-61.441406-61.441406-61.441406zm0 0" fill="#0e65e5"/><path d="m358.875 204.800781h-102.402344c-9.386718 0-17.066406-7.679687-17.066406-17.066406s7.679688-17.066406 17.066406-17.066406h102.402344c9.386719 0 17.066406 7.679687 17.066406 17.066406s-7.679687 17.066406-17.066406 17.066406zm0 0" fill="#d7e9ff"/><path d="m358.875 211.625h-102.402344c-13.171875 0-23.894531-10.71875-23.894531-23.890625 0-13.175781 10.722656-23.894531 23.894531-23.894531h102.402344c13.171875 0 23.890625 10.71875 23.890625 23.894531 0 13.171875-10.71875 23.890625-23.890625 23.890625zm-102.402344-34.132812c-5.648437 0-10.238281 4.59375-10.238281 10.242187 0 5.644531 4.589844 10.238281 10.238281 10.238281h102.402344c5.644531 0 10.238281-4.59375 10.238281-10.238281 0-5.648437-4.59375-10.242187-10.238281-10.242187zm0 0" fill="#0e65e5"/><path d="m358.875 273.066406h-102.402344c-9.386718 0-17.066406-7.679687-17.066406-17.066406s7.679688-17.066406 17.066406-17.066406h102.402344c9.386719 0 17.066406 7.679687 17.066406 17.066406s-7.679687 17.066406-17.066406 17.066406zm0 0" fill="#d7e9ff"/><path d="m358.875 279.894531h-102.402344c-13.171875 0-23.894531-10.722656-23.894531-23.894531s10.722656-23.894531 23.894531-23.894531h102.402344c13.171875 0 23.890625 10.722656 23.890625 23.894531s-10.71875 23.894531-23.890625 23.894531zm-102.402344-34.132812c-5.648437 0-10.238281 4.589843-10.238281 10.238281s4.589844 10.238281 10.238281 10.238281h102.402344c5.644531 0 10.238281-4.589843 10.238281-10.238281s-4.59375-10.238281-10.238281-10.238281zm0 0" fill="#0e65e5"/><path d="m358.875 238.933594h-102.402344c-9.386718 0-17.066406-7.679688-17.066406-17.066406 0-9.386719 7.679688-17.066407 17.066406-17.066407h102.402344c9.386719 0 17.066406 7.679688 17.066406 17.066407 0 9.386718-7.679687 17.066406-17.066406 17.066406zm0 0" fill="#d7e9ff"/><path d="m358.875 245.761719h-102.402344c-13.171875 0-23.894531-10.722657-23.894531-23.894531 0-13.175782 10.722656-23.894532 23.894531-23.894532h102.402344c13.171875 0 23.890625 10.71875 23.890625 23.894532 0 13.171874-10.71875 23.894531-23.890625 23.894531zm-102.402344-34.136719c-5.648437 0-10.238281 4.59375-10.238281 10.242188 0 5.648437 4.589844 10.238281 10.238281 10.238281h102.402344c5.644531 0 10.238281-4.589844 10.238281-10.238281 0-5.648438-4.59375-10.242188-10.238281-10.242188zm0 0" fill="#0e65e5"/><path d="m304.058594 118.03125v-10.339844c-5.941406-.105468-12.085938-1.945312-15.667969-4.507812l2.453125-6.859375c3.6875 2.453125 9.011719 4.398437 14.746094 4.398437 7.269531 0 12.1875-4.199218 12.1875-10.03125 0-5.632812-3.996094-9.113281-11.570313-12.1875-10.445312-4.09375-16.894531-8.808594-16.894531-17.714844 0-8.5 6.042969-14.945312 15.464844-16.484374v-10.34375h6.34375v9.933593c6.144531.199219 10.34375 1.839844 13.316406 3.582031l-2.5625 6.757813c-2.148438-1.226563-6.347656-3.476563-12.902344-3.476563-7.882812 0-10.851562 4.707032-10.851562 8.804688 0 5.320312 3.789062 7.988281 12.695312 11.671875 10.546875 4.300781 15.871094 9.621094 15.871094 18.734375 0 8.09375-5.632812 15.667969-16.175781 17.414062v10.648438zm0 0" fill="#0e65e5"/><path d="m116.527344 197.972656c-3.769532 0-6.828125-3.050781-6.828125-6.824218v-27.308594c0-3.773438 3.058593-6.828125 6.828125-6.828125 3.769531 0 6.824218 3.054687 6.824218 6.828125v27.308594c0 3.773437-3.054687 6.824218-6.824218 6.824218zm0 0" fill="#fff"/><path d="m130.179688 184.320312h-27.304688c-3.773438 0-6.828125-3.054687-6.828125-6.828124 0-3.773438 3.054687-6.824219 6.828125-6.824219h27.304688c3.769531 0 6.828124 3.050781 6.828124 6.824219 0 3.773437-3.058593 6.828124-6.828124 6.828124zm0 0" fill="#fff"/></svg>