<?xml version="1.0" encoding="utf-8"?>
<!-- Generator: Adobe Illustrator 22.1.0, SVG Export Plug-In . SVG Version: 6.00 Build 0)  -->
<svg version="1.1" id="_x31_" xmlns="http://www.w3.org/2000/svg" xmlns:xlink="http://www.w3.org/1999/xlink" x="0px" y="0px"
	 viewBox="0 0 450 450" style="enable-background:new 0 0 450 450;" xml:space="preserve">
<style type="text/css">
	.st0{clip-path:url(#SVGID_2_);fill:#4EA09D;}
	.st1{clip-path:url(#SVGID_2_);fill:#EA9292;}
	.st2{clip-path:url(#SVGID_2_);}
	.st3{fill:#4EA09D;}
	.st4{fill:#FCF9F9;}
	.st5{fill:#939AA0;}
	.st6{fill:#6A8F9B;}
	.st7{fill:#1E5259;}
	.st8{fill:#81F2EF;}
	.st9{fill:#2D918A;}
	.st10{fill:#773128;}
	.st11{fill:#F9AA8F;}
	.st12{fill:#CC6148;}
	.st13{fill:#A54D3C;}
	.st14{fill:#BCE4ED;}
	.st15{fill:#1F4386;}
	.st16{fill:#66C6C6;}
	.st17{fill:#F4F5F5;}
</style>
<g>
	<g>
		<defs>
			<circle id="SVGID_1_" cx="205.2" cy="226" r="191.5"/>
		</defs>
		<use xlink:href="#SVGID_1_"  style="overflow:visible;fill:#66C6C6;"/>
		<clipPath id="SVGID_2_">
			<use xlink:href="#SVGID_1_"  style="overflow:visible;"/>
		</clipPath>
		<path class="st0" d="M308.1,280.6h105.7c1.2,0,2.2,1,2.2,2.2v63.8c0,1.2-1,2.2-2.2,2.2H308.1c-1.2,0-2.2-1-2.2-2.2v-63.8
			C305.9,281.5,306.9,280.6,308.1,280.6z"/>
		<path class="st1" d="M393.2,269.5l0.1,22.2H376v-11.3c0,0,7.2-0.3,11.2-3.2C391.1,274.3,393.2,269.5,393.2,269.5z"/>
		<path class="st0" d="M455.1,154.7v20.9c0,5.5-4.5,10-10,10h-61.2v8.9h32.4c5.5,0,10,4.5,10,10v20.8c0,5.5-4.5,10-10,10h-32.4v13
			c0,5.5-4.5,10-10,10h-90.1c-5.5,0-10-4.5-10-10V75.8c0-5.5,4.5-10,10-10h90.1c5.5,0,10,4.5,10,10v68.9h61.2
			C450.6,144.7,455.1,149.1,455.1,154.7z"/>
		<path class="st1" d="M311.9,258.4v0.2c0,0-7.2,0.4-11.2,3.2c-3.9,2.8-6,7.7-6,7.7l0-11.1H311.9z"/>
		<path class="st1" d="M146.2,232.9l0.1-22.2H129V222c0,0,7.2,0.3,11.2,3.2C144.1,228.1,146.2,232.9,146.2,232.9z"/>
		<g class="st2">
			<path class="st3" d="M185.8,222h-73.5c-1.2,0-2.2-1-2.2-2.2v-55.5c0-1.2,1-2.2,2.2-2.2h73.5c1.2,0,2.2,1,2.2,2.2v55.5
				C188,221,187,222,185.8,222z"/>
			<path class="st3" d="M177.7,224.3h-57.4c-6.9,0-12.5-5.6-12.5-12.5v-39.4c0-6.9,5.6-12.5,12.5-12.5h57.4
				c6.9,0,12.5,5.6,12.5,12.5v39.4C190.3,218.7,184.7,224.3,177.7,224.3z M120.3,164.4c-4.4,0-8,3.6-8,8v39.4c0,4.4,3.6,8,8,8h57.4
				c4.4,0,8-3.6,8-8v-39.4c0-4.4-3.6-8-8-8H120.3z"/>
		</g>
		<path class="st0" d="M308.7,373.8l-17.8,5.8l-7.3,0.5l-2.7,0c0-0.4,0-1,0-1.6c-0.6-0.1-1.1-0.4-1.3-0.8c-1.1-1.7-4.2-8.3-7.2-14.7
			c0,0,0-0.1-0.1-0.1c2.9,6.4,6.6,14.3,8,17.3l-88.6,0.8l-1.7-33l2.8-34.7c0.8,0,14.4-7,25-12.4h0c3.8-2,7.2-3.8,9.5-4.9
			c1.8-1,3-1.6,3-1.6l-1.2-3.3c-2.8,0.5-3.5,0.7-6.3,0.7c-8.6,0.1-17.7-6.6-21.4-14c-3.1-6.1-5.9-12.8-8-18.6
			c-0.5-1.5-1-2.9-1.5-4.2c-0.5-1.4-1-2.7-1.4-3.9c-5.9-2.2-7.2-6.4-7.2-6.4s-8-0.7-8.9-7.7c-0.9-7,7.1-10.5,7.1-10.5
			s-1.2-15.4,14.5-21.2c26.5-9.8,34.4,7.5,34.4,7.5s4.9-7,14.2-4.9c9.4,2.1,11.7,17.3,9.3,25.6c-0.7,2.3-1.9,4.3-3.4,6
			c1.2,0,2.4,0.2,3.5,0.8c1,0.5,1.9,1.3,2.8,2.4c5.9,7.4,0.5,12.7-2.3,14.4c-2.8,1.7-5.9,2.3-5.9,2.3s2.2,8.3,1.3,14.2
			c-1,6-4.3,9-6.9,10.3l3.1,8.3c0,0,4.4,2.4,10.6,5.9l0,0c12.4,6.9,31.7,18,35.2,21.5c0.8,0.8,1.8,2.6,2.9,5.2
			c2.6,6.2,5.6,16.3,8.1,25.1c0.6,2.2,1.2,4.3,1.7,6.3c0.3,1.2,0.6,2.4,0.9,3.5c0.9,3.3,1.5,5.9,1.9,6.9
			C308.3,368.5,308.6,371.3,308.7,373.8z"/>
		<g class="st2">
			<path class="st3" d="M259.2,39.3v98.6c0,5.5-4.5,10-10,10H122.6c-5.5,0-10-4.5-10-10V90H77c-1.9,0-3.4,1.5-3.4,3.4v7.9
				c13.5,4.3,23.4,17,23.4,32s-9.8,27.7-23.4,32.1V188c13.5,4.3,23.4,17,23.4,32s-9.8,27.7-23.4,32v22.7c13.5,4.3,23.4,17,23.4,32
				c0,18.6-15.1,33.6-33.6,33.6s-33.6-15.1-33.6-33.6c0-15,9.8-27.7,23.4-32v-22.7c-13.5-4.3-23.4-17-23.4-32s9.8-27.7,23.4-32
				v-22.7c-13.5-4.3-23.4-17.1-23.4-32.1s9.8-27.7,23.4-32V79c0-5.3,4.3-9.6,9.6-9.6h49.8V39.3c0-5.5,4.5-10,10-10h126.7
				C254.8,29.3,259.2,33.8,259.2,39.3z"/>
			<path class="st3" d="M63.4,342.8c-19.8,0-35.9-16.1-35.9-35.9c0-15.2,9.3-28.5,23.4-33.7v-19.5c-14.1-5.2-23.4-18.5-23.4-33.7
				c0-15.2,9.3-28.5,23.4-33.7v-19.4c-14.1-5.2-23.4-18.6-23.4-33.7c0-15.2,9.3-28.5,23.4-33.7V79c0-6.6,5.3-11.9,11.9-11.9h47.5
				V39.3c0-6.8,5.5-12.3,12.3-12.3h126.7c6.8,0,12.3,5.5,12.3,12.3v98.6c0,6.8-5.5,12.3-12.3,12.3H122.6c-6.8,0-12.3-5.5-12.3-12.3
				V92.2H77c-0.6,0-1.1,0.5-1.1,1.1v6.2c14.1,5.2,23.4,18.5,23.4,33.7c0,15.1-9.3,28.5-23.4,33.7v19.4c14.1,5.2,23.4,18.5,23.4,33.7
				c0,15.2-9.3,28.5-23.4,33.7v19.5c14.1,5.2,23.4,18.5,23.4,33.7C99.3,326.6,83.2,342.8,63.4,342.8z M62.8,71.7
				c-4,0-7.3,3.3-7.3,7.3v23.9l-1.6,0.5c-13,4.1-21.8,16.1-21.8,29.8c0,13.7,8.8,25.7,21.8,29.9l1.6,0.5v26l-1.6,0.5
				c-13,4.1-21.8,16.1-21.8,29.8c0,13.7,8.8,25.7,21.8,29.8l1.6,0.5v26.1l-1.6,0.5c-13,4.1-21.8,16.1-21.8,29.8
				c0,17.3,14.1,31.3,31.3,31.3c17.3,0,31.3-14.1,31.3-31.3c0-13.7-8.8-25.7-21.8-29.8l-1.6-0.5v-26.1l1.6-0.5
				c13-4.1,21.8-16.1,21.8-29.8c0-13.7-8.8-25.7-21.8-29.8l-1.6-0.5v-26l1.6-0.5c13-4.2,21.8-16.2,21.8-29.9
				c0-13.7-8.8-25.7-21.8-29.8l-1.6-0.5v-9.5c0-3.1,2.5-5.7,5.7-5.7h37.8v50.2c0,4.2,3.5,7.7,7.7,7.7h126.7c4.3,0,7.7-3.4,7.7-7.7
				V39.3c0-4.3-3.5-7.7-7.7-7.7H122.6c-4.3,0-7.7,3.5-7.7,7.7v32.3H62.8z"/>
		</g>
	</g>
	<path class="st4" d="M399.2,271.2h-12.8l0-11.1c0,0-2.1,4.9-6,7.7c-4,2.9-11.2,3.2-11.2,3.2v0.2h-60.1c-5.5,0-10,4.5-10,10v48.1
		c0,5.5,4.5,10,10,10h90.1c5.5,0,10-4.5,10-10v-48.1C409.2,275.7,404.7,271.2,399.2,271.2z"/>
	<g>
		<path class="st4" d="M349.6,306c0,10.9-8.9,19.8-19.8,19.8s-19.8-8.9-19.8-19.8c0-10.9,8.9-19.8,19.8-19.8S349.6,295.1,349.6,306z
			"/>
		<path class="st5" d="M329.9,327.5c-11.9,0-21.5-9.6-21.5-21.5c0-11.8,9.6-21.5,21.5-21.5c11.8,0,21.5,9.6,21.5,21.5
			C351.4,317.9,341.7,327.5,329.9,327.5z M329.9,288c-10,0-18.1,8.1-18.1,18.1c0,10,8.1,18.1,18.1,18.1c10,0,18.1-8.1,18.1-18.1
			C347.9,296.1,339.8,288,329.9,288z"/>
	</g>
	<g>
		<path class="st4" d="M349.7,306c0,10.9-8.9,19.8-19.8,19.8c-10.9,0-19.8-8.9-19.8-19.8H349.7z"/>
		<path class="st5" d="M329.9,327.5c-11.8,0-21.5-9.6-21.5-21.5v-1.7h43v1.7C351.4,317.9,341.7,327.5,329.9,327.5z M311.9,307.7
			c0.9,9.2,8.6,16.3,18,16.3c9.4,0,17.1-7.2,18-16.3H311.9z"/>
	</g>
	<g>
		<path class="st4" d="M400,306c0,10.9-8.9,19.8-19.8,19.8c-10.9,0-19.8-8.9-19.8-19.8H400z"/>
		<path class="st5" d="M380.2,327.5c-11.8,0-21.5-9.6-21.5-21.5c0-0.9,0.8-1.7,1.7-1.7H400c0.9,0,1.7,0.8,1.7,1.7
			C401.7,317.9,392.1,327.5,380.2,327.5z M362.2,307.7c0.9,9.2,8.6,16.3,18,16.3c9.4,0,17.1-7.2,18-16.3H362.2z"/>
	</g>
	<g>
		<path class="st5" d="M319,341.1h-10c-6.5,0-11.7-5.3-11.7-11.7v-48.1c0-6.5,5.3-11.7,11.7-11.7h59.3c0.2-0.1,0.4-0.2,0.6-0.2
			c0.1,0,6.8-0.4,10.3-2.9c3.5-2.5,5.4-6.9,5.4-7c0.3-0.7,1.1-1.2,1.9-1c0.8,0.2,1.4,0.9,1.4,1.7l0,9.4h11.1
			c6.5,0,11.7,5.3,11.7,11.7v17.6c0,0.9-0.8,1.7-1.7,1.7c-0.9,0-1.7-0.8-1.7-1.7v-17.6c0-4.6-3.7-8.3-8.3-8.3h-12.8
			c-0.9,0-1.7-0.8-1.7-1.7l0-5.2c-0.9,1.1-2,2.2-3.3,3.2c-3.6,2.6-9.3,3.3-11.4,3.5c-0.2,0.2-0.5,0.2-0.8,0.2h-60.1
			c-4.6,0-8.3,3.7-8.3,8.3v48.1c0,4.6,3.7,8.3,8.3,8.3h10c0.9,0,1.7,0.8,1.7,1.7C320.7,340.3,320,341.1,319,341.1z M369.1,271
			L369.1,271L369.1,271z"/>
	</g>
	<g>
		<path class="st5" d="M409.2,323.8c-0.9,0-1.7-0.8-1.7-1.7v-3.9c0-0.9,0.8-1.7,1.7-1.7c0.9,0,1.7,0.8,1.7,1.7v3.9
			C410.9,323,410.1,323.8,409.2,323.8z"/>
	</g>
	<g>
		<path class="st5" d="M399.2,341.1h-8.5c-0.9,0-1.7-0.8-1.7-1.7c0-0.9,0.8-1.7,1.7-1.7h8.5c4.6,0,8.3-3.7,8.3-8.3
			c0-0.9,0.8-1.7,1.7-1.7c0.9,0,1.7,0.8,1.7,1.7C410.9,335.8,405.6,341.1,399.2,341.1z"/>
	</g>
	<path class="st4" d="M446.1,176.2H293.9c-1.2,0-2.2-1-2.2-2.2v-36.5c0-1.2,1-2.2,2.2-2.2h152.2c1.2,0,2.2,1,2.2,2.2V174
		C448.3,175.2,447.3,176.2,446.1,176.2z"/>
	<path class="st5" d="M344.3,156.4c0,2.4-2,4.4-4.4,4.4c-2.4,0-4.4-2-4.4-4.4c0-2.4,2-4.4,4.4-4.4C342.3,152,344.3,154,344.3,156.4z
		"/>
	<path class="st5" d="M373.5,156.4c0,2.4-2,4.4-4.4,4.4c-2.4,0-4.4-2-4.4-4.4c0-2.4,2-4.4,4.4-4.4C371.5,152,373.5,154,373.5,156.4z
		"/>
	<path class="st5" d="M402.7,156.4c0,2.4-2,4.4-4.4,4.4c-2.4,0-4.4-2-4.4-4.4c0-2.4,2-4.4,4.4-4.4C400.7,152,402.7,154,402.7,156.4z
		"/>
	<path class="st5" d="M431.9,156.4c0,2.4-2,4.4-4.4,4.4c-2.4,0-4.4-2-4.4-4.4c0-2.4,2-4.4,4.4-4.4C429.9,152,431.9,154,431.9,156.4z
		"/>
	<g>
		<path class="st5" d="M438.3,177.9H301.7c-6.5,0-11.7-5.3-11.7-11.7v-20.8c0-6.5,5.3-11.7,11.7-11.7h109.8c0.9,0,1.7,0.8,1.7,1.7
			c0,0.9-0.8,1.7-1.7,1.7H301.7c-4.6,0-8.3,3.7-8.3,8.3v20.8c0,4.6,3.7,8.3,8.3,8.3h136.5c4.6,0,8.3-3.7,8.3-8.3v-20.8
			c0-4.6-3.7-8.3-8.3-8.3h-6.4c-0.9,0-1.7-0.8-1.7-1.7c0-0.9,0.8-1.7,1.7-1.7h6.4c6.5,0,11.7,5.3,11.7,11.7v20.8
			C450,172.6,444.7,177.9,438.3,177.9z"/>
	</g>
	<path class="st4" d="M417.3,226H281.7c-1.2,0-2.2-1-2.2-2.2v-36.5c0-1.2,1-2.2,2.2-2.2h135.6c1.2,0,2.2,1,2.2,2.2v36.5
		C419.5,225,418.5,226,417.3,226z"/>
	<path class="st5" d="M315.5,206.2c0,2.4-2,4.4-4.4,4.4c-2.4,0-4.4-2-4.4-4.4c0-2.4,2-4.4,4.4-4.4
		C313.5,201.8,315.5,203.8,315.5,206.2z"/>
	<path class="st5" d="M344.7,206.2c0,2.4-2,4.4-4.4,4.4c-2.4,0-4.4-2-4.4-4.4c0-2.4,2-4.4,4.4-4.4
		C342.7,201.8,344.7,203.8,344.7,206.2z"/>
	<path class="st5" d="M373.9,206.2c0,2.4-2,4.4-4.4,4.4c-2.4,0-4.4-2-4.4-4.4c0-2.4,2-4.4,4.4-4.4
		C371.9,201.8,373.9,203.8,373.9,206.2z"/>
	<path class="st5" d="M403.1,206.2c0,2.4-2,4.4-4.4,4.4c-2.4,0-4.4-2-4.4-4.4c0-2.4,2-4.4,4.4-4.4
		C401.1,201.8,403.1,203.8,403.1,206.2z"/>
	<path class="st5" d="M409.5,227.7h-120c-6.5,0-11.7-5.3-11.7-11.7v-20.8c0-6.5,5.3-11.7,11.7-11.7h120c6.5,0,11.7,5.3,11.7,11.7
		V216C421.2,222.4,416,227.7,409.5,227.7z M289.5,186.8c-4.6,0-8.3,3.7-8.3,8.3V216c0,4.6,3.7,8.3,8.3,8.3h120
		c4.6,0,8.3-3.7,8.3-8.3v-20.8c0-4.6-3.7-8.3-8.3-8.3H289.5z"/>
	<path class="st4" d="M367.1,56.5H277c-5.5,0-10,4.5-10,10v28v12.1V239c0,5.5,4.5,10,10,10h10.8l0,11.1c0,0,2.1-4.9,6-7.7
		c4-2.9,11.2-3.2,11.2-3.2V249h22.4h39.7c5.5,0,10-4.5,10-10V66.5C377.1,61,372.6,56.5,367.1,56.5z"/>
	
		<ellipse transform="matrix(0.2298 -0.9732 0.9732 0.2298 156.1451 386.2237)" class="st6" cx="322.1" cy="94.5" rx="22.1" ry="22.1"/>
	<path class="st4" d="M335.5,112c-3.8,2.9-8.4,4.6-13.5,4.6s-9.7-1.7-13.4-4.5c2.4-4.6,6.3-7.8,10.9-8.7v-3.4
		c-3.8-1.1-6.5-4.9-6.5-9.2c0-5.3,4-9.6,9-9.6c5,0,9,4.3,9,9.6c0,4.3-2.7,8.1-6.4,9.2v3.4C329.2,104.2,333.1,107.4,335.5,112z"/>
	<g>
		<path class="st7" d="M322.1,118.3c-5.2,0-10.2-1.7-14.4-4.8c-6-4.6-9.4-11.5-9.4-19c0-13.1,10.7-23.8,23.8-23.8
			c13.1,0,23.8,10.7,23.8,23.8c0,7.5-3.4,14.4-9.3,18.9C332.4,116.6,327.3,118.3,322.1,118.3z M322.1,74.1
			c-11.2,0-20.4,9.1-20.4,20.4c0,6.4,2.9,12.3,8.1,16.3c7.2,5.4,17.6,5.4,24.7-0.1c5.1-3.9,8-9.8,8-16.2
			C342.4,83.2,333.3,74.1,322.1,74.1z"/>
	</g>
	<g>
		<polygon class="st8" points="349.7,195.1 349.7,216.3 332.7,216.3 332.7,233.3 311.6,233.3 311.6,216.3 294.6,216.3 294.6,195.1 
			311.6,195.1 311.6,178.3 332.7,178.3 332.7,195.1 		"/>
		<path class="st9" d="M332.7,235.1h-21.2c-0.9,0-1.7-0.8-1.7-1.7V218h-15.3c-0.9,0-1.7-0.8-1.7-1.7v-21.2c0-0.9,0.8-1.7,1.7-1.7
			h15.3v-15.1c0-0.9,0.8-1.7,1.7-1.7h21.2c0.9,0,1.7,0.8,1.7,1.7v15.1h15.2c0.9,0,1.7,0.8,1.7,1.7v21.2c0,0.9-0.8,1.7-1.7,1.7h-15.2
			v15.4C334.4,234.3,333.7,235.1,332.7,235.1z M313.3,231.6H331v-15.4c0-0.9,0.8-1.7,1.7-1.7h15.2v-17.7h-15.2
			c-0.9,0-1.7-0.8-1.7-1.7V180h-17.7v15.1c0,0.9-0.8,1.7-1.7,1.7h-15.3v17.7h15.3c0.9,0,1.7,0.8,1.7,1.7V231.6z"/>
	</g>
	<g>
		<rect x="282.2" y="145.6" class="st5" width="81.5" height="3.4"/>
	</g>
	<g>
		<rect x="282.2" y="158.3" class="st5" width="81.5" height="3.4"/>
	</g>
	<rect x="282.2" y="128.2" class="st5" width="81.5" height="9"/>
	<g>
		<path class="st5" d="M367.1,250.8h-19.3c-0.9,0-1.7-0.8-1.7-1.7c0-0.9,0.8-1.7,1.7-1.7h19.3c4.6,0,8.3-3.7,8.3-8.3V66.5
			c0-4.6-3.7-8.3-8.3-8.3H277c-4.6,0-8.3,3.7-8.3,8.3v23.8c0,0.9-0.8,1.7-1.7,1.7s-1.7-0.8-1.7-1.7V66.5c0-6.5,5.3-11.7,11.7-11.7
			h90.1c6.5,0,11.7,5.3,11.7,11.7V239C378.8,245.5,373.6,250.8,367.1,250.8z"/>
	</g>
	<g>
		<path class="st5" d="M267,116.7c-0.9,0-1.7-0.8-1.7-1.7v-10.6c0-0.9,0.8-1.7,1.7-1.7s1.7,0.8,1.7,1.7V115
			C268.7,116,267.9,116.7,267,116.7z"/>
	</g>
	<path class="st4" d="M170.9,152.8h-57.4c-5.7,0-10.3,4.6-10.3,10.3v39.4c0,5.7,4.6,10.3,10.3,10.3h8.7c0,0,7.2,0.3,11.2,3.2
		c3.9,2.8,6,7.7,6,7.7l0-10.9h31.5c5.7,0,10.3-4.6,10.3-10.3V163C181.2,157.4,176.6,152.8,170.9,152.8z"/>
	<g>
		<path class="st5" d="M113.5,214.4c-6.6,0-12-5.4-12-12V163c0-6.6,5.4-12,12-12h39.8c0.9,0,1.7,0.8,1.7,1.7s-0.8,1.7-1.7,1.7h-39.8
			c-4.7,0-8.5,3.8-8.5,8.5v39.4c0,4.7,3.8,8.5,8.5,8.5c0.9,0,1.7,0.8,1.7,1.7C115.2,213.7,114.4,214.4,113.5,214.4z"/>
	</g>
	<g>
		<path class="st5" d="M181.2,184.5c-0.9,0-1.7-0.8-1.7-1.7V163c0-4.7-3.8-8.5-8.5-8.5h-3.2c-0.9,0-1.7-0.8-1.7-1.7s0.8-1.7,1.7-1.7
			h3.2c6.6,0,12,5.4,12,12v19.7C182.9,183.7,182.1,184.5,181.2,184.5z"/>
	</g>
	<g>
		<polygon class="st8" points="166.4,165.7 145.5,191.4 138.8,199.7 138.7,199.8 138.7,199.7 132,191.4 118,174 131.5,174 
			138.8,183 152.8,165.7 		"/>
		<path class="st9" d="M138.7,201.5c-0.4,0-0.9-0.2-1.2-0.5L116.7,175c-0.4-0.5-0.5-1.2-0.2-1.8c0.3-0.6,0.9-1,1.5-1h13.5
			c0.5,0,1,0.2,1.3,0.6l5.9,7.3l12.7-15.6c0.3-0.4,0.8-0.6,1.3-0.6h13.6c0.7,0,1.3,0.4,1.6,1c0.3,0.6,0.2,1.3-0.2,1.8l-27.6,34
			c-0.1,0.1-0.2,0.2-0.4,0.3C139.5,201.3,139.1,201.5,138.7,201.5z M121.6,175.7l17.1,21.4l5.4-6.7l18.6-22.9h-9.2L140.1,184
			c-0.3,0.4-0.8,0.5-1.3,0.6c-0.5,0-1-0.2-1.3-0.6l-6.7-8.4H121.6z"/>
	</g>
	<path class="st10" d="M240.1,247.1c0,0,3.6,17.6,2.4,20.3c-1.2,2.6-11.4,7.3-11.4,7.3l-2.5-24.4L240.1,247.1z"/>
	<path id="body_2_" class="st11" d="M294.6,371.9l-24,0.2l-87.8,0.9l-4.2,0l2.6-33l2.7-34.7c0.7,0,13.7-7,23.8-12.4h0
		c3.6-2,6.9-3.8,9.1-4.9c0,0,0,0,0,0c1.8-1,2.8-1.6,2.8-1.6l-1.1-3.3c-2.7,0.5-3.4,0.7-6,0.7c-8.2,0.1-16.9-6.6-20.4-14
		c-3-6.1-5.6-12.8-7.6-18.6c-0.5-1.5-1-2.9-1.4-4.2c-2.2-6.5-3.5-11.1-3.5-11.1l1-5.9l39.8-13.6c2.4,3.2,11.9,18.8,11.9,18.8
		s5.1-5.8,10.2-2.8c0.9,0.5,1.8,1.3,2.7,2.4c5.7,7.4,0.5,12.7-2.2,14.4c-2.7,1.7-5.6,2.3-5.6,2.3s2.1,8.3,1.3,14.2
		c-0.9,6-4.1,9-6.6,10.3l3,8.3c0,0,4.2,2.4,10.1,5.9l0,0c11.8,6.9,30.2,18,33.5,21.5c2.9,3.2,7.2,18.1,10.5,30.3
		c0.6,2.2,1.1,4.3,1.6,6.3c0.3,1.2,0.6,2.4,0.9,3.5c0.9,3.3,1.5,5.9,1.8,6.9C294.9,363.3,294.6,371.9,294.6,371.9z"/>
	<path class="st12" d="M242.4,232.2c-3,2.5-7.8,6-11.2,6.7c-5.2,1.1-13.6-6.3-13.6-6.3s-6.2,8.1-13.9,11.8c-4.2,2-13.8,2.8-19.3,6.7
		c-0.5-1.5-1-2.9-1.4-4.2c-2.2-6.5-3.5-11.1-3.5-11.1l1-5.9l39.8-13.6c2.4,3.2,11.9,18.8,11.9,18.8S237.3,229.2,242.4,232.2z"/>
	<path class="st12" d="M207.8,292.8c6.6-3.6,11.9-6.5,11.9-6.5l-1.1-3.3l13.5-7.1l-6.9,7.4l0.7,2.5l-14,7.3L207.8,292.8z"/>
	<path id="shirt" class="st4" d="M295.6,365.4l-18.1,6.2l-7,0.5l-87.8,0.9l-1.6-33l2.7-34.7c0.7,0,13.7-7,23.8-12.4h0
		c3.6-2,6.9-3.8,9.1-4.9c0.1,0.7,1,7.4,5.9,9.7c5.3,2.5,12.4,2.1,16.2-0.5c3.7-2.7,6.2-7.1,6.2-7.1l0,0c11.8,6.9,30.2,18,33.5,21.5
		C282.2,315.4,289.7,339.7,295.6,365.4z"/>
	<path class="st13" d="M173.2,218.4c0,0-1.2-15.4,13.9-21.2c25.3-9.8,32.9,7.5,32.9,7.5s4.7-7,13.6-4.9c8.9,2.1,11.1,17.3,8.8,25.6
		c-2.1,7.6-10.1,12.5-15.2,10.7c-8-2.8-9.6-7.1-9.6-7.1s-3.2,13.7-25.1,15.3c-14.8,1.1-17.5-7.7-17.5-7.7s-7.7-0.7-8.5-7.7
		C165.5,221.9,173.2,218.4,173.2,218.4z"/>
	<path class="st10" d="M208.4,251.3c0,0-0.4-2.3,0-3.2c0.4-0.9,3.5-2.2,6.8-2c3.3,0.2,4.5,1.3,4.5,1.3s-5.5,1.3-7.4,1.9
		C210.4,249.9,208.4,251.3,208.4,251.3z"/>
	<path class="st10" d="M197.5,252.8c0,0-0.6-2.5-1.9-2.9c-1.3-0.4-4.4,0.1-6.2,1c-1.3,0.6-2.5,2.9-2.5,2.9s3.8-1.4,5.6-1.5
		C194.3,252.2,197.5,252.8,197.5,252.8z"/>
	<path class="st10" d="M217.5,257.5c0.6,1.5,0.4,3-0.5,3.3c-0.9,0.3-2-0.6-2.6-2.1c-0.6-1.5-0.4-3,0.5-3.3
		C215.7,255.1,216.9,256,217.5,257.5z"/>
	<path class="st10" d="M198.1,262.1c0.6,1.5,0.4,3-0.5,3.3c-0.9,0.3-2-0.6-2.6-2.1c-0.6-1.5-0.4-3,0.5-3.3
		C196.4,259.6,197.5,260.6,198.1,262.1z"/>
	<path class="st12" d="M206.5,271.7c-1.6,0-3.6-0.4-4.7-2.1c-1.1-1.6-0.6-3.1-0.2-4.6c0.5-1.7,1-3.6,0-6.7c-1.8-5.8-5.3-5.9-5.5-5.9
		c-0.4,0-0.7-0.3-0.7-0.8c0-0.4,0.3-0.7,0.8-0.7c0.2,0,4.7,0.1,6.9,7c1.1,3.5,0.5,5.9,0,7.5c-0.4,1.4-0.6,2.3,0,3.3
		c1.3,2.1,5.3,1.2,5.3,1.2c0.4-0.1,0.8,0.2,0.9,0.6c0.1,0.4-0.2,0.8-0.6,0.9C208.7,271.5,207.8,271.7,206.5,271.7z"/>
	<path class="st12" d="M213.3,277c-0.4,0-0.7-0.1-1-0.1c-0.4-0.1-0.6-0.5-0.5-0.9c0.1-0.4,0.5-0.6,0.9-0.5c0.1,0,2.5,0.6,4.1-2.5
		c0.2-0.4,0.6-0.5,1-0.3c0.4,0.2,0.5,0.6,0.3,1C216.8,276.3,214.8,277,213.3,277z"/>
	<path class="st12" d="M234.3,245.2c0,0-0.1,0-0.1,0c-0.4-0.1-0.7-0.4-0.6-0.8c0-0.2,0.5-3.7,3.9-4.8c0.4-0.1,0.8,0.1,0.9,0.5
		c0.1,0.4-0.1,0.8-0.5,0.9c-2.5,0.8-2.9,3.6-2.9,3.6C235,244.9,234.7,245.2,234.3,245.2z"/>
	<path class="st11" d="M288.4,366.6c0,0-19.6,6.7-21.7,3.1c-1-1.7-4-8.3-6.9-14.7c-1.5-3.2-2.9-6.4-3.9-8.9
		c-1.3-2.8-2.1-4.7-2.1-4.7l9.4-13.6L288.4,366.6z"/>
	<path class="st12" d="M264.8,347.9c0.6,5.4,4.3,23.7,3,25.1c-1.5-3.2-10.9-24.4-11.9-26.9l7.5-13.1
		C263.3,333,264.2,342.5,264.8,347.9z"/>
	<path class="st11" d="M254.7,322.9c3.4-0.1,9,3.6,9.6,7.6c0.7,4-3.1,18.2-7.8,18.4c-4.7,0.2-12-3.9-12-3.9s-0.7,6-3,9.7
		c-2.2,3.7-4.2,5.8-6.1,5.1c-1.9-0.8,1-8.1,1.1-14.2c0.1-6.1-0.7-11.8,0.3-13.6C237.9,330.1,249.6,323.1,254.7,322.9z"/>
	<path class="st14" d="M75.3,366.6c0.8,0.8,1.6,1.5,2.5,2.3c33.9,30.2,78.5,48.6,127.5,48.6s93.6-18.4,127.5-48.6
		c0.8-0.8,1.6-1.5,2.5-2.3H75.3z"/>
	<path class="st6" d="M72.8,364.3c0.8,0.8,1.6,1.6,2.4,2.3c0.8,0.8,1.6,1.5,2.5,2.3h255c0.8-0.8,1.6-1.5,2.5-2.3
		c0.8-0.7,1.6-1.5,2.4-2.3H72.8z"/>
	<g>
		<path class="st6" d="M247.7,364.4H126.4c-1.3,0-2.3-1-2.3-2.3c0-1.3,1-2.3,2.3-2.3h121.3c1.3,0,2.3,1,2.3,2.3
			C250,363.4,249,364.4,247.7,364.4z"/>
	</g>
	<g>
		<polygon class="st6" points="202.8,303.1 108.4,303.1 129.9,365.4 224.2,365.4 		"/>
		<path class="st6" d="M224.2,367.7h-94.4c-1,0-1.8-0.6-2.2-1.5l-21.4-62.3c-0.2-0.7-0.1-1.5,0.3-2.1c0.4-0.6,1.1-1,1.9-1h94.4
			c1,0,1.8,0.6,2.2,1.5l21.4,62.3c0.2,0.7,0.1,1.5-0.3,2.1C225.7,367.4,225,367.7,224.2,367.7z M131.5,363.2H221l-19.8-57.7h-89.5
			L131.5,363.2z"/>
	</g>
	<g>
		<path class="st4" d="M161.4,320.5c0,0,13.4,8,14.6,15.5c1.2,7.4-2.9,10.5-7.3,11.7c-4.4,1.2-11.1-2.3-12.1-8.3
			C155.6,333.3,161.4,320.5,161.4,320.5z"/>
		<path class="st4" d="M166.9,350.2c-2.3,0-4.7-0.7-6.9-2.1c-3.1-2-5.1-5-5.7-8.3c-1.1-6.5,4.4-18.8,5-20.2c0.3-0.6,0.8-1,1.4-1.2
			c0.6-0.2,1.3-0.1,1.9,0.2c1.5,0.9,14.4,8.8,15.7,17.1c1.2,7.3-2,12.4-9,14.2C168.5,350.1,167.7,350.2,166.9,350.2z M162.4,323.9
			c-1.8,4.4-4.2,11.5-3.6,15.1c0.5,2.8,2.5,4.5,3.7,5.2c1.8,1.2,4,1.7,5.6,1.3c4.6-1.2,6.4-4.1,5.6-9.1
			C173.1,332,166.6,326.7,162.4,323.9z"/>
	</g>
	<g>
		<path class="st6" d="M164.6,336.6l4.3,16.3L164.6,336.6z"/>
		<path class="st6" d="M168.9,354.6c-0.8,0-1.5-0.5-1.7-1.3l-4.2-16.3c-0.2-0.9,0.3-1.9,1.2-2.1c0.9-0.2,1.9,0.3,2.1,1.2l4.2,16.3
			c0.2,0.9-0.3,1.9-1.2,2.1C169.1,354.6,169,354.6,168.9,354.6z"/>
	</g>
	<path class="st4" d="M227.7,60.1v20.5H70.2c-1.9,0-3.4,1.5-3.4,3.4v212.7H46.3v-227c0-5.3,4.3-9.6,9.6-9.6H227.7z"/>
	<g>
		<path class="st5" d="M68.5,298.4H44.6V69.7c0-6.2,5.1-11.3,11.3-11.3h173.4v24H70.2c-0.9,0-1.7,0.8-1.7,1.7V298.4z M48,295h17.1
			V84c0-2.8,2.3-5.1,5.1-5.1h155.7V61.8h-170c-4.4,0-7.9,3.5-7.9,7.9V295z"/>
	</g>
	
		<ellipse transform="matrix(0.1387 -0.9903 0.9903 0.1387 -245.9004 312.2698)" class="st14" cx="56.6" cy="297.5" rx="33.6" ry="33.6"/>
	<g>
		<path class="st6" d="M89.3,291.5c-0.8,0-1.5-0.5-1.7-1.3c-1-4.3-2.9-8.2-5.5-11.8c-0.6-0.8-0.4-1.8,0.3-2.4
			c0.8-0.6,1.8-0.4,2.4,0.3c2.9,3.9,5,8.3,6.1,13c0.2,0.9-0.4,1.8-1.3,2.1C89.6,291.5,89.5,291.5,89.3,291.5z"/>
	</g>
	<g>
		<path class="st6" d="M56.6,332.9c-19.5,0-35.4-15.9-35.4-35.4c0-19.5,15.9-35.4,35.4-35.4c7.1,0,13.9,2.1,19.8,6
			c0.8,0.5,1,1.6,0.5,2.4c-0.5,0.8-1.6,1-2.4,0.5c-5.3-3.6-11.5-5.5-17.8-5.5c-17.6,0-31.9,14.3-31.9,31.9
			c0,17.6,14.3,31.9,31.9,31.9c14.5,0,27.2-9.8,30.9-23.8c0.2-0.9,1.2-1.5,2.1-1.2c0.9,0.2,1.5,1.2,1.2,2.1
			C86.7,322,72.7,332.9,56.6,332.9z"/>
	</g>
	<path class="st4" d="M72.1,297.5c0,8.8-7.2,16-16,16c-8.8,0-16-7.2-16-16c0-8.8,7.2-16,16-16C65,281.5,72.1,288.7,72.1,297.5z"/>
	<g>
		<path class="st15" d="M90.2,210.7c0,18.6-15.1,33.6-33.6,33.6c-18.6,0-33.6-15.1-33.6-33.6c0-18.6,15.1-33.6,33.6-33.6
			C75.2,177.1,90.2,192.1,90.2,210.7z"/>
		<path class="st15" d="M56.6,246.1c-19.5,0-35.4-15.9-35.4-35.4c0-19.5,15.9-35.4,35.4-35.4c19.5,0,35.4,15.9,35.4,35.4
			C91.9,230.2,76.1,246.1,56.6,246.1z M56.6,178.8c-17.6,0-31.9,14.3-31.9,31.9c0,17.6,14.3,31.9,31.9,31.9
			c17.6,0,31.9-14.3,31.9-31.9C88.5,193.1,74.2,178.8,56.6,178.8z"/>
	</g>
	<path class="st4" d="M77.7,214.7c-1.1,2.6-3,4.7-5.2,6l-0.9,0.5l-14.9,8.5l-14.9-8.5l-0.9-0.5c-2.2-1.4-4.1-3.5-5.2-6
		c-2.9-6.8,0.2-14.6,6.9-17.5c4.9-2.1,10.4-1.1,14.2,2.3c3.8-3.4,9.3-4.4,14.2-2.3C77.5,200.1,80.6,207.9,77.7,214.7z"/>
	
		<ellipse transform="matrix(0.2298 -0.9732 0.9732 0.2298 -77.0338 150.5168)" class="st8" cx="56.6" cy="123.9" rx="33.6" ry="33.6"/>
	<g>
		<path class="st9" d="M56.6,159.3c-19.5,0-35.4-15.9-35.4-35.4c0-3.2,0.4-6.3,1.3-9.4c0.2-0.9,1.2-1.5,2.1-1.2
			c0.9,0.3,1.5,1.2,1.2,2.1c-0.8,2.7-1.1,5.6-1.1,8.5c0,17.6,14.3,31.9,31.9,31.9c17.6,0,31.9-14.3,31.9-31.9
			c0-17.6-14.3-31.9-31.9-31.9c-8.8,0-17.1,3.5-23.2,10c-0.7,0.7-1.7,0.7-2.4,0.1c-0.7-0.7-0.7-1.7-0.1-2.4c6.7-7.1,15.9-11,25.7-11
			c19.5,0,35.4,15.9,35.4,35.4C91.9,143.4,76.1,159.3,56.6,159.3z"/>
	</g>
	<path class="st4" d="M71,127.3c0,8.2-6.6,14.9-14.9,14.9c-8.2,0-14.9-6.6-14.9-14.9c0-3.2,1-6.1,2.7-8.5l0.7-1l11.5-12.2l11.5,12.2
		l0.7,1C70,121.2,71,124.1,71,127.3z"/>
	<path class="st4" d="M250.2,138.6H107.9c-1.2,0-2.2-1-2.2-2.2V22.2c0-1.2,1-2.2,2.2-2.2h142.3c1.2,0,2.2,1,2.2,2.2v114.2
		C252.4,137.6,251.4,138.6,250.2,138.6z"/>
	<g>
		<path class="st5" d="M138.6,140.3h-22.8c-6.5,0-11.7-5.3-11.7-11.7V30c0-6.5,5.3-11.7,11.7-11.7h126.7c6.5,0,11.7,5.3,11.7,11.7
			v19.9c0,0.9-0.8,1.7-1.7,1.7c-0.9,0-1.7-0.8-1.7-1.7V30c0-4.6-3.7-8.3-8.3-8.3H115.7c-4.6,0-8.3,3.7-8.3,8.3v98.5
			c0,4.6,3.7,8.3,8.3,8.3h22.8c0.9,0,1.7,0.8,1.7,1.7C140.3,139.5,139.5,140.3,138.6,140.3z"/>
	</g>
	<g>
		<path class="st5" d="M252.4,72.3c-0.9,0-1.7-0.8-1.7-1.7v-7.7c0-0.9,0.8-1.7,1.7-1.7c0.9,0,1.7,0.8,1.7,1.7v7.7
			C254.1,71.5,253.4,72.3,252.4,72.3z"/>
	</g>
	<g>
		<rect x="209.5" y="97.6" class="st5" width="27.4" height="3.4"/>
	</g>
	<g>
		<rect x="209.5" y="110.3" class="st5" width="27.4" height="3.4"/>
	</g>
	<g>
		<rect x="122.2" y="32.8" class="st5" width="114.8" height="3.4"/>
	</g>
	<g>
		<polygon class="st15" points="153.1,114.3 138.2,82.5 123.7,99.9 121,97.7 139,76.1 153.5,107.1 186.2,54.7 205.4,77.2 
			236.3,64.6 237.6,67.8 204.4,81.3 186.7,60.5 		"/>
	</g>
	<circle class="st16" cx="122.4" cy="98.8" r="4.3"/>
	<circle class="st16" cx="138.6" cy="79.3" r="4.3"/>
	<circle class="st16" cx="153.3" cy="110.7" r="4.3"/>
	<circle class="st16" cx="186.5" cy="57.6" r="4.3"/>
	<circle class="st16" cx="204.9" cy="79.3" r="4.3"/>
	<circle class="st16" cx="237" cy="66.2" r="4.3"/>
	<path class="st4" d="M39.4,430h106.3c1.8,0,3.2-1.5,3.2-3.2v-80.2c0-1.8-1.5-3.2-3.2-3.2H39.4c-1.8,0-3.2,1.5-3.2,3.2v80.2
		C36.2,428.6,37.7,430,39.4,430z"/>
	<g>
		<rect x="62.5" y="360.1" class="st15" width="46.1" height="48.9"/>
		<path class="st15" d="M108.6,410.7H62.5c-0.9,0-1.7-0.8-1.7-1.7v-48.9c0-0.9,0.8-1.7,1.7-1.7h46.2c0.9,0,1.7,0.8,1.7,1.7V409
			C110.4,409.9,109.6,410.7,108.6,410.7z M64.2,407.3h42.7v-45.4H64.2V407.3z"/>
	</g>
	<g>
		<polygon class="st15" points="108.6,369.9 125.7,369.9 138.2,385 138.2,409 108.6,409 		"/>
		<path class="st15" d="M138.2,410.7h-29.6c-0.9,0-1.7-0.8-1.7-1.7v-39.1c0-0.9,0.8-1.7,1.7-1.7h17c0.5,0,1,0.2,1.3,0.6l12.6,15.1
			c0.3,0.3,0.4,0.7,0.4,1.1v24C139.9,409.9,139.2,410.7,138.2,410.7z M110.4,407.3h26.2v-21.7l-11.6-14h-14.5V407.3z"/>
	</g>
	<g>
		<polygon class="st16" points="138.2,385 119.3,385 119.3,376.9 131.5,376.9 		"/>
		<path class="st16" d="M138.2,386.7h-18.9c-0.9,0-1.7-0.8-1.7-1.7v-8.1c0-0.9,0.8-1.7,1.7-1.7h12.1c0.5,0,1,0.2,1.3,0.6l6.7,8.1
			c0.4,0.5,0.5,1.2,0.2,1.8C139.5,386.3,138.9,386.7,138.2,386.7z M121.1,383.3h13.5l-3.9-4.7h-9.6V383.3z"/>
	</g>
	<g>
		<path class="st16" d="M80,373.3H49.4c-0.9,0-1.7-0.8-1.7-1.7c0-0.9,0.8-1.7,1.7-1.7H80c0.9,0,1.7,0.8,1.7,1.7
			C81.7,372.6,81,373.3,80,373.3z"/>
	</g>
	<g>
		<path class="st16" d="M80,383.4H49.4c-0.9,0-1.7-0.8-1.7-1.7c0-0.9,0.8-1.7,1.7-1.7H80c0.9,0,1.7,0.8,1.7,1.7
			C81.7,382.6,81,383.4,80,383.4z"/>
	</g>
	<g>
		<path class="st16" d="M80,393.4H49.4c-0.9,0-1.7-0.8-1.7-1.7c0-0.9,0.8-1.7,1.7-1.7H80c0.9,0,1.7,0.8,1.7,1.7
			C81.7,392.6,81,393.4,80,393.4z"/>
	</g>
	<g>
		<path class="st15" d="M89.9,409c0-4.8-3.9-8.7-8.7-8.7c-4.8,0-8.7,3.9-8.7,8.7c0,4.8,3.9,8.7,8.7,8.7
			C86,417.7,89.9,413.8,89.9,409z"/>
		<path class="st15" d="M81.2,419.4c-5.8,0-10.4-4.7-10.4-10.4c0-5.8,4.7-10.4,10.4-10.4c5.8,0,10.4,4.7,10.4,10.4
			C91.6,414.8,86.9,419.4,81.2,419.4z M81.2,402c-3.9,0-7,3.1-7,7c0,3.9,3.1,7,7,7c3.9,0,7-3.1,7-7C88.2,405.1,85,402,81.2,402z"/>
	</g>
	<g>
		<path class="st15" d="M132.2,409c0-4.8-3.9-8.7-8.7-8.7c-4.8,0-8.7,3.9-8.7,8.7c0,4.8,3.9,8.7,8.7,8.7
			C128.2,417.7,132.2,413.8,132.2,409z"/>
		<path class="st15" d="M123.4,419.4c-5.8,0-10.4-4.7-10.4-10.4c0-5.8,4.7-10.4,10.4-10.4c5.8,0,10.4,4.7,10.4,10.4
			C133.9,414.8,129.2,419.4,123.4,419.4z M123.4,402c-3.9,0-7,3.1-7,7c0,3.9,3.1,7,7,7c3.9,0,7-3.1,7-7
			C130.4,405.1,127.3,402,123.4,402z"/>
	</g>
	<g>
		<path class="st5" d="M132.2,431.7h-11.9c-0.9,0-1.7-0.8-1.7-1.7c0-0.9,0.8-1.7,1.7-1.7h11.9c0.9,0,1.7,0.8,1.7,1.7
			C133.9,431,133.1,431.7,132.2,431.7z"/>
	</g>
	<g>
		<path class="st5" d="M105.5,431.7H51c-9.1,0-16.6-7.4-16.6-16.6v-57c0-9.1,7.4-16.6,16.6-16.6h34.5c0.9,0,1.7,0.8,1.7,1.7
			c0,0.9-0.8,1.7-1.7,1.7H51c-7.2,0-13.1,5.9-13.1,13.1v57c0,7.2,5.9,13.1,13.1,13.1h54.5c0.9,0,1.7,0.8,1.7,1.7
			C107.2,431,106.5,431.7,105.5,431.7z"/>
	</g>
	<path class="st4" d="M128.3,262.3c0,2.3-1.9,4.2-4.2,4.2c-2.3,0-4.2-1.9-4.2-4.2c0-2.3,1.9-4.2,4.2-4.2
		C126.5,258.1,128.3,260,128.3,262.3z"/>
	<circle class="st4" cx="149.6" cy="286.9" r="2.4"/>
	<path class="st4" d="M139,243.2c0,1.6-1.3,2.9-2.9,2.9c-1.6,0-2.9-1.3-2.9-2.9c0-1.6,1.3-2.9,2.9-2.9
		C137.7,240.2,139,241.5,139,243.2z"/>
	<path class="st4" d="M243.2,176.4c0,1.3-1.1,2.4-2.4,2.4c-1.3,0-2.4-1.1-2.4-2.4s1.1-2.4,2.4-2.4
		C242.1,174,243.2,175.1,243.2,176.4z"/>
	<path class="st4" d="M285.3,295.2c0,0.8-0.7,1.5-1.5,1.5c-0.8,0-1.5-0.7-1.5-1.5c0-0.8,0.7-1.5,1.5-1.5
		C284.6,293.7,285.3,294.4,285.3,295.2z"/>
	<path class="st15" d="M349.5,397.3c0,3.9-3.2,7-7,7c-3.9,0-7-3.2-7-7c0-3.9,3.2-7,7-7C346.3,390.3,349.5,393.5,349.5,397.3z"/>
	<path class="st15" d="M363.7,363.5c0,2.4-2,4.4-4.4,4.4c-2.4,0-4.4-2-4.4-4.4c0-2.4,2-4.4,4.4-4.4
		C361.7,359.1,363.7,361,363.7,363.5z"/>
	<path class="st15" d="M401.5,110.4c0,2.1-1.7,3.9-3.9,3.9s-3.9-1.7-3.9-3.9s1.7-3.9,3.9-3.9S401.5,108.3,401.5,110.4z"/>
	<path class="st15" d="M21.3,336.8c0,2.6-2.1,4.6-4.6,4.6c-2.6,0-4.6-2.1-4.6-4.6s2.1-4.6,4.6-4.6C19.2,332.1,21.3,334.2,21.3,336.8
		z"/>
	<circle class="st15" cx="2.8" cy="291.5" r="2.8"/>
	<path class="st15" d="M95.8,28.9c0,3.1-2.5,5.6-5.6,5.6c-3.1,0-5.6-2.5-5.6-5.6s2.5-5.6,5.6-5.6C93.3,23.4,95.8,25.9,95.8,28.9z"/>
	<path class="st15" d="M72,36.3c0,1.5-1.2,2.8-2.8,2.8c-1.5,0-2.8-1.2-2.8-2.8c0-1.5,1.2-2.8,2.8-2.8C70.7,33.5,72,34.8,72,36.3z"/>
</g>
</svg>
